<svg xmlns="http://www.w3.org/2000/svg" xmlns:xlink="http://www.w3.org/1999/xlink" data-name="Layer 1" preserveAspectRatio="xMidYMid meet" version="1.0" viewBox="28.7 50.5 626.4 1199.9" zoomAndPan="magnify" style="fill: rgb(179, 137, 68);" original_string_length="16040"><g data-name="27" id="__id18_scyj4txqq"><path d="M244.25,768.77c.72-2.36.92-5.08,2.24-7a222.86,222.86,0,0,1,43.29-47c15-12.32,32.47-21.4,50.49-29a62.74,62.74,0,0,1,8.81-3.29c21.05-5.35,39.64-15.79,56.9-28.49,5.29-3.9,9.3,1.21,14-.35,1.47-.49,2.4,2.29,2.36,4.18-.11,4.4-.54,8.56-2.8,12.68-14.47,26.38-27.08,53.83-44.79,78.37-2.57,3.56-5.15,7.28-8.43,10.12-11.39,9.83-19.8,22.72-32.32,31.4-2.14,1.49-1.54,4.74,1.08,6,3.92,1.94,7.9,4.93,12,5.15,13.18.71,25.77,5.41,39.17,4.7,11.27-.6,22.61.3,33.92.36,10.05.06,20.08,0,29.72-3.72,1.29-.49,3.89.46,4.85,1.61a6.48,6.48,0,0,1,.85,5.13,38.2,38.2,0,0,1-9.4,16.1c-17.67,19-39.69,31.08-64.54,36.81-27.71,6.38-55.86,6-84.14,1.75-14.18-2.15-28.29-5.17-42.83-5.52-16.18-.39-31,3.45-45.52,10a13.44,13.44,0,0,0-8.1,9.62,45.47,45.47,0,0,0-1.51,9.29c-.57,20.15-4.21,39.91-7.11,59.78-3.08,21.09-6,42.18-11.42,62.84a11.5,11.5,0,0,0-.41,3.73c.12,1.81-.06,4.23,1,5.24,1.47,1.41,3.18-.43,4.35-1.64,4.38-4.51,8.73-9,13-13.69a125.4,125.4,0,0,1,29.3-23.54c12.47-7.3,25.27-14,37.81-21.18,16.1-9.2,34.09-12.54,51.82-16.38a51.29,51.29,0,0,1,20.61.2,109.38,109.38,0,0,0,44.83-.3c4.91-1,9.94-1.49,14.93-2.15,3.53-.48,5.82,1.74,5.78,5.18-.05,3.89-.68,7.69-3.21,10.61-11.11,12.79-20.82,26.82-34,37.83a133.77,133.77,0,0,1-40.64,23.32A231,231,0,0,1,271.35,1030c-17.36,1.84-35,1.63-52.17,6.36-14.26,3.94-26.54,11.15-38,20-8.78,6.81-13.47,16.68-15.69,27.19-8.07,38-19.71,75.1-30.49,112.39-5.05,17.46-10.41,34.94-20.37,50.48-1,1.52-3.31,3.94-3.84,3.66-1.9-1-1.29-3.12-.58-4.91.23-.58.59-1.12.77-1.72,8.57-27.51,17.38-54.94,25.6-82.56,8-27,15.18-54.28,20.8-81.92,2.75-13.5,5.08-27.16,9-40.34,2.67-9,.61-15.8-4.62-22.73-8.43-11.17-18.94-20.06-30.11-28.26-4.55-3.34-9.48-6.18-14-9.56-9.06-6.76-18.43-13.15-26-21.74-2.07-2.35-4.12-5.15-6.81-6.47-13.55-6.72-20.52-20-30.65-30.12a24,24,0,0,1-5.45-7.61C42.22,896,34.64,880.25,32.11,862.44c-1.95-13.75-3.44-27.32-3-41.15a14.94,14.94,0,0,1,5.44-11.48c5.61-4.89,7.92-5.28,12.35.08Q57.7,823,68,836.42a575.14,575.14,0,0,0,57.71,64.5c10.08,9.72,17.07,21.77,24.26,33.49,8.87,14.45,16.43,29.7,19.43,46.72a26.32,26.32,0,0,0,6,13c2.83-16,6-31.11,8-46.31,2-14.9,4-29.79,4.95-44.87,1.26-19.31,5.08-38.49,8.37-57.63a117.68,117.68,0,0,0,1.52-14.92c.4-8.78.9-17.47,3.19-26.12,2.89-10.92,2.13-22.4,4-33.61,2.1-12.92,2-26.2,4.66-39.15,1.15-5.6-.4-10.91-1.94-16.51-4.63-16.91-14.8-30.29-25.28-43.62-3.1-3.95-6.42-7.74-9.75-11.5-14.45-16.3-22.52-35.5-28.54-56.33a228.55,228.55,0,0,1-9.14-62.93c-.1-24,4.16-47.4,11.07-70.34.54-1.79,1.49-3.49,3.65-3.68a5,5,0,0,1,5.44,4.12c5.69,24.77,19.44,46.06,29.24,69,8.38,19.66,18.44,38.47,27,58,6.87,15.73,8.71,32.59,10.14,49.47.48,5.59.46,11.23.77,19.78,2.32-6,4-9.08,4.75-12.39,4.72-20.18,12.74-39.34,18.38-59.18,7.92-27.88,20.43-53.88,31.12-80.58,6.72-16.79,16.64-32.31,25.29-48.3,3-5.56,5.82-10.93,6.21-17.53.47-7.83-.31-14.9-5.51-21.25-4.76-5.82-8.68-12.32-13.5-18.07-11.71-13.94-23.49-27.82-35.68-41.33a115.62,115.62,0,0,1-24.91-43.76,245.12,245.12,0,0,1-10.69-85.48c.47-10,2.6-19.87,4.19-29.76.28-1.76,1.53-3.41,2.51-5,1.93-3.14,7.69-3.66,9.78-.67,2.51,3.57,4.6,7.43,6.81,11.21,8.54,14.63,16.45,29.67,25.71,43.83a219.63,219.63,0,0,1,30.51,70.32c2.15,9.11,5.69,17.92,9,26.71,2.44,6.45,4.7,12.92,6.79,19.51,4.6,14.49,7.82,29,7.16,44.31-.05,1.17.68,2.37,1,3.56,1.6-.78,3.22-1.5,4.76-2.38.5-.28.78-1,1.14-1.49q18.84-27,37.68-54.09c1.8-2.57,3.08-5.64,5.29-7.77,8.43-8.13,10.62-18.35,10.06-29.36-.82-16.26,1.72-32.77-3.47-48.71,1.34-13.35-4.43-25.89-4.44-39.07,0-6.05-1.84-12.54,5.05-16.86,1.48-.93,1.68-4.58,1.73-7,.85-36,11.76-68.95,29.9-99.77.48-.82-.1-2.27-.18-3.43-1,.1-2.31-.17-2.88.36-2.3,2.14-4.3,4.59-6.54,6.78-.71.69-2.06,1.49-2.76,1.24-1.38-.49-1.53-1.92-.68-3.22,8.13-12.28,19.63-21,31.43-29.3,1.08-.76,4.06.91,4.48,2.3,2.06,6.85,1.34,13.87-.16,20.49-1.69,7.5-1.67,14.95-1.78,22.47q-.39,26.4-.61,52.82c-.1,13.89-3.31,27.35-5.68,40.9-4.12,23.48-12.82,45.77-18.94,68.74a91.74,91.74,0,0,0-1.83,11.1c-.07.51.48,1.56.78,1.58,1,0,2.37.09,2.87-.49,7.87-9,16.06-17.72,23.27-27.21a209,209,0,0,1,25.37-27.79c4.17-3.82,7.66-8.39,12-12,6-5.08,8.22-10.77,5.07-18.27-1.55-3.71-.55-7.28.88-10.92,2.7-6.84,2.5-15,9.49-19.78-.47,5-1.11,9.87-3.33,14.54-.94,2-1.11,6.37-.19,6.84,3.4,1.73,2.92-2.39,3.84-3.93,2.57-4.28,4.58-8.9,6.81-13.38,3-6.14,5.47-12.7,9.24-18.35,12.84-19.27,26-38.25,44.66-52.76,7.37-5.73,14-12.46,21.89-17.56,1.39-.9,2-2.94,3-4.45,8.28-.56,14.32-6,21.75-9.11a5.65,5.65,0,0,0-7.38-1.07c-5.08,2.91-11.84,3.78-14,10.59-2.3.49-4.62.92-6.9,1.49-2.88.71-5.74,1.52-8.61,2.29.17-2.89,2.31-4.2,4.41-5.59a300.32,300.32,0,0,1,39.43-22c15.37-7.16,30.43-14.9,43.8-25.54A30.33,30.33,0,0,1,648,51.48c2.33-1,3.63.85,4.28,2.43,1.64,4,2.75,7.74.47,12.4A403.45,403.45,0,0,1,624.09,115c-7,10.41-13.68,21.14-21.56,30.87-9,11.16-18.93,21.66-29,31.92a286,286,0,0,1-74,54.49C475.9,244.42,456.27,262,440,283.2c-7.66,9.93-16.11,19.25-24,29-5.1,6.36-9.78,13.07-14.59,19.66-.17.24.14,1.07.47,1.35s1.23.7,1.52.51c7.85-5.19,16.47-8.78,24.9-12.86,16.63-8.07,34.57-11,52.11-15.48,6-1.53,12.46-1.59,18.71-1.6,24.51,0,49,.28,73.55.46,1.25,0,2.51.07,3.76.16,2.63.21,4.8,2.74,4.11,5-1.79,6-3.5,12-5.66,17.93-2.72,7.38-8.11,12.69-14.75,16.58-5.41,3.17-10.94,6.35-16.79,8.5-13.54,5-27.08,10.2-41,13.69-15,3.76-29.92,7-46.22,3.3-20.07-4.57-40.84-7-61.67-3.88-3.09.46-6.27.35-9.36.8a25.75,25.75,0,0,0-18.51,11.44c-18.43,26.94-37.71,53.31-51.66,83.08-4.78,10.21-10.85,19.82-16.22,29.76-.51.94-.76,2.66-.25,3.4,1.84,2.64,3.15-.05,4.17-1a155.81,155.81,0,0,1,58.1-33.73,187.28,187.28,0,0,1,55.5-8.55c11.95-.05,23.89,0,35.84-.08,9.41,0,18.74.14,28.08-2.26,5.32-1.36,11.25-.57,16.89-.44,4,.09,6.17,4.86,3.88,8.43-6.13,9.52-12.74,18.46-22.9,24.4C466.59,487.51,455.7,495,444.53,502c-3.19,2-6.43,4.34-10,5.22-8.66,2.14-16.21,6.66-24.28,10.07-8.63,3.64-17.42,6.45-27.19,6.54-9.31.08-18.56,2.62-27.9,3.3s-18.93-.29-28.27.67c-16.34,1.68-31.92,6.25-46.19,14.78-3.92,2.34-7.18,5.21-9.16,9.2A146.17,146.17,0,0,0,264,569c-12.19,35.57-24.37,71.17-33.09,107.79-5.66,23.76-10.28,47.77-15.24,71.69a55.17,55.17,0,0,0-.72,9.37c-.62,20.13-3.34,40-7,59.76-1,5.51-.87,11.27-1,16.92-.1,5.07-.47,10-2.39,14.79-.63,1.56-.85,4.06,1.17,4.28,1.11.12,3.07-2.17,3.64-3.73a167.52,167.52,0,0,0,5-16.11,234.88,234.88,0,0,1,23.77-59.16c1.56-2.72,3.31-5.36,6.61-6.32,1.12,3-1.75,6.86,1.65,9.45,4.07-5,8-9.69,11.86-14.48,1.56-1.93,1.44-5.05-.06-4.75a5.88,5.88,0,0,0-3,1.08C251.82,763,249.93,768.09,244.25,768.77Zm-52.4-139.71c-.6-.17-1.49-.15-1.77-.55-6.49-9.37-9.45-20.26-13-30.86-1.43-4.21-2.14-9-.21-12.95,2.56-5.27,1.22-9.53-1.27-14a73.47,73.47,0,0,1-4.21-8.42c-7.83-19.74-18-38.78-18.39-60.8,0-1.11-.93-2.29-1.63-3.29-.25-.35-1.13-.42-1.69-.36s-1.28.43-1.34.76c-1.62,9.83-3.21,19.66-4.69,29.5a7.21,7.21,0,0,0,.42,3.71c3.66,8.68,3.34,18.48,8.08,27,2.7,4.83,4.18,10.48,5.42,15.94,3.51,15.34,9.25,29.9,15.3,44.33a85.29,85.29,0,0,0,14,22.09c.75.87,2.13,1.21,3.21,1.79.55-1,1.55-2,1.58-3.09.1-3.77-.12-7.54-.22-11.3,1,.7,2.65,1.29,2.78,2.11.9,6.17,4.89,11.3,5.26,17.77.28,4.86,2.4,9.63,3.9,14.37.27.85,1.49,1.41,2.27,2.1a12.33,12.33,0,0,0,1.46-3.25,26.3,26.3,0,0,0,0-5.61c-2.29-25.52-10.9-48.76-26.43-72.46.59,9.55,3.32,15.8,5.17,22.29C188,613.51,192.25,620.69,191.85,629.06ZM316.34,508.27l-.41-.47c1.29,1.26,2.48,3.43,3.87,3.58a23.27,23.27,0,0,0,9.25-.81c12.92-4.13,26-3.73,38.94-1a74.65,74.65,0,0,0,38.83-1.82c20-6.33,37.56-16.94,53.45-30.44,1.84-1.56,3.13-3.83,4.46-5.92.53-.84,1-2.67.57-3a4.44,4.44,0,0,0-3.4-.92,114.56,114.56,0,0,1-26,3.32C420.9,471,406,472,391,473.37c-19,1.77-36.65,7.65-54.25,13.89a66.2,66.2,0,0,0-26.37,17.47c-2.22,2.39.66,2.88,2.2,3.33A15.84,15.84,0,0,0,316.34,508.27ZM142.56,976.13a7.73,7.73,0,0,1,1.87.09c1.53.46,3,1,4.54,1.57.08-1.17.59-2.5.19-3.47a233.24,233.24,0,0,0-33.87-58.05,389.57,389.57,0,0,1-26.37-36.41,231.46,231.46,0,0,0-23.46-31.48c-4.58-5.11-9.52-9.9-14.45-14.68a3.77,3.77,0,0,0-3.39-.38,3.7,3.7,0,0,0-1.86,2.86c1.44,10.49,2.82,21,4.77,31.41a77.85,77.85,0,0,0,4.89,16.07c6.86,16.14,14.77,31.77,24.77,46.23a94,94,0,0,0,16,18.19c12.37,10.66,26.09,19.37,38.93,29.32a7.49,7.49,0,0,0,3.32,1.54c2.08.28,3.38-1.05,4.19-2.86ZM274.81,829.05l-.29-.33c-2.31,5.3-7.79,5.57-12.18,7.11s-9.1,2.45-12.72,7.43c13.28.29,25.77.85,38.25.71,7.65-.09,14.76.74,21.87,4a97.84,97.84,0,0,0,38.17,8.84c16.67.36,33.53-1.88,49.57-8.16,13.58-5.33,26.08-12,36.3-22.58.77-.79,1-2.12,1.44-3.2-1.11-.42-2.47-1.48-3.28-1.15-12.62,5.1-26,3.1-39,3.92-4.23.26-8.7-.92-12.84-2.17-7.73-2.34-15.4-4.76-23-7.72-19.45-7.58-40-9.36-60.8-8.78a67,67,0,0,0-28.83,7c-11.82,5.93-23.06,12.69-32.29,22.32-2.94,3.06-7.21,5-8.38,9.6,5.66,2.73,9.08-2.34,13.42-4,2.87-1.1,5.17-3.6,8-4.84C256.77,833.31,264.88,828.1,274.81,829.05Zm119-141.26a6,6,0,0,0-1.39-1.25,2.19,2.19,0,0,0-1.77-.13c-7.23,5.11-15.6,7.8-23.64,11.18-30.19,12.71-58.19,29.1-83.33,50.19a95.28,95.28,0,0,0-10.79,10.47c-4.92,5.67-9.49,11.64-14,17.63-1.07,1.4-2.47,4.1-1.89,5,3.66,5.34-.38,7.78-3.38,10.88q-7.83,8.1-15.32,16.53c-.61.68-.54,2.3-.26,3.34.45,1.62,1.51,1.52,3,.59,19.29-12.18,39.91-20.89,62.73-23.8a55.9,55.9,0,0,0,7.4-1.31,14.74,14.74,0,0,0,5.11-2.23c12-9.06,24.25-17.94,33.46-30.12,3.79-5,8-9.77,11.06-15.2,4.45-8,11.83-12.55,18.6-17.92.67-9.64,4.81-17.8,10.52-25.41C391.64,693.76,392.48,690.61,393.77,687.79Zm-7.93,271.47c-.85-.7-1.77-2.1-2.52-2-8.69,1.06-17.31,3-26,3.46-21.89,1.31-43.49,4.71-65.19,7.58-25.46,3.37-48.63,11.61-69,27.26-2.57,2-6.56,2.66-6.93,7.57s-6.14,5.25-9.15,8.09c-2.72,2.56-6.14,4.36-9,6.8a30.25,30.25,0,0,0-4.88,5.69,3.67,3.67,0,0,0-.48,3.22,3.41,3.41,0,0,0,3,1.24c7.65-2.73,15.19-5.77,22.82-8.57,12.34-4.53,24.8-8.81,37.92-10.31,21.76-2.5,43.58-4.51,65.37-6.83,25.08-2.66,45.56-13.06,58.92-35.35,1.28-2.14,3-4,4.43-6.08A8.08,8.08,0,0,0,385.84,959.26ZM634,78.89c-15.94,11-32.57,19.66-49.08,28.48-25.78,13.78-47.74,31.74-64.76,55.76-9.81,13.86-18,28.61-25.78,43.6a8.65,8.65,0,0,0-.56,3.69c0,.53.43,1.46.81,1.54,1,.21,2.58.48,3,0,3.17-3.83,6.12-7.84,9.13-11.8,5.45,8.26,9.45.11,13.27-1.73a246,246,0,0,0,27.75-15.71c6.23-4.09,11.4-9.75,17.37-14.28,12.55-9.51,24.32-20,33.59-32.62C611.93,117.81,625.05,99.68,634,78.89ZM399.69,352.7c12.87,0,23.52,0,34.17,0,10,.06,19.86,0,29.71,3.27,8.21,2.71,17.48.38,25.94,3.41,1,.36,2.41-.32,3.63-.58,25.88-5.38,47.69-18.2,66.47-36.49a4.42,4.42,0,0,0,1.06-3.37c-.34-2.15-2.29-2.48-4.15-2.62-22-1.73-43.67.63-65.16,5.45-15.84,3.54-31.8,6.55-47.66,10-7.33,1.59-14.54,3.7-20.55,8.6,2.93,2,6,1.27,8.93.24a59.92,59.92,0,0,1,35.28-1.2c13.79,3.7,26-.07,38.46-4,4.74-1.5,9.15-4.06,13.71-6.14,2-.92,4.45-.07,4,1.4a9.77,9.77,0,0,1-1.43,3.34c-3.9,4.42-9.42,6.12-14.69,7.94-15.82,5.45-31.95,5.28-48.2,2.08-3.64-.72-7.92-2.25-11-1-9.18,3.61-18.54,2.33-27.86,2.8C413.52,346.09,406.46,346.13,399.69,352.7ZM226.59,244.58c-.22,9.94.37,17.33,2.87,24.59,7.17,20.8,16.32,40.57,29.38,58.38.68.93,2,1.37,3.06,2,.49-1.06,1.31-2.11,1.39-3.2a40.85,40.85,0,0,0-.36-5.61c-.13-1.92.47-3.72,2.4-4.11.81-.16,2.39,1,2.82,2,7.5,16.46,14.83,33,22.3,49.45,1.52,3.35,3.46,6.51,5.2,9.76,4.09-3.47,1.49-7.89,1.43-11.79A58.49,58.49,0,0,0,284,329.71c-4.29-5.38-8.89-10.64-12.37-16.53-9.53-16.13-18.56-32.57-27.77-48.9-3.38-6-6.25-12.13-7.64-19-.83-4.14-3.37-7.94-5.23-11.84-.12-.26-1.09-.26-1.6-.14a2.48,2.48,0,0,0-1.44.87C225.47,238.18,226.72,242.67,226.59,244.58Zm170.27,8.09c9.84-32.15,16.46-64.48,17.6-97.75a22.93,22.93,0,0,1,1.14-7.41c2.62-6.69,1.27-13.69,2-20.52.07-.69-1-1.59-1.76-2.19-.17-.14-1.19.42-1.54.87-5.47,7.07-7.72,15.71-11.39,23.66-14,30.28-17.65,62.67-17.93,95.39-.13,15.29,3,30.6,4.59,45.9a175,175,0,0,0,2.13-31.91c-.93-23.89,4.95-47.34,4-71.18a3.32,3.32,0,0,1,.78-1.63,14.19,14.19,0,0,1,1.13-1.33c.41.48,1.13.93,1.17,1.44,1,13.74,1.33,27.64-1.42,41.06C395.53,235.9,395.78,244.25,396.86,252.67Zm-162.94,49.1c-.16,2.82-.66,4.73-.31,6.46,3.31,16.15,9.24,31.25,19.85,44,4.07,4.9,6.56,10.67,10.2,15.64s9.06,8.25,13.34,12.65c3.91,4,7.31,8.52,11,12.75a2.09,2.09,0,0,0,1.7.57c1.44-.29,2-1.26,1.37-2.45-8.21-16.18-16.89-32.06-27.46-46.87C253.8,330.82,244.35,316.84,233.92,301.77ZM378.83,680.53c-.12-.43-.11-1-.38-1.2-.45-.35-1.2-.77-1.61-.61-5.76,2.3-11.34,5.19-17.26,7-22.39,6.72-42.47,17.82-61.71,30.87-11.52,7.82-20.94,17.6-29.67,28.21-.5.61.14,2.14.25,3.23,1-.27,2.23-.25,2.89-.86a283.85,283.85,0,0,1,67.52-46.76c8.92-4.41,18.23-8,27.29-12.12C370.67,686.19,375.55,684.63,378.83,680.53ZM148.72,569.39c-2.75,2.51-2.51,5-2.16,7.23,1.85,11.64,4.09,23.21,8,34.37,8.44,24.19,25.58,42.53,41.69,61.55a1.29,1.29,0,0,0,1.28.13c.43-.38,1-1.12.87-1.54-1.87-6.75-5.85-12.23-10.16-17.67-11.69-14.72-21.67-30.37-27.1-48.71C157.61,592.91,153,581.41,148.72,569.39Zm93.79-339.32c-2.16,3.86-.68,6.69.44,9.62,7.38,19.34,17.54,37.28,28.09,55,4.45,7.49,9.69,14.52,14.64,21.72.95,1.37,2.09,1.47,2.81.48.32-.45.69-1.21.52-1.63-3.67-9.26-6.7-18.86-11.29-27.64C267.34,267.79,254.76,249.25,242.51,230.07ZM209.68,637.55c.69-8.37,1.32-13.2-.39-18.1-5.55-15.91-11-31.84-19-46.76-2.07-3.86-5-7.53-6-11.66-2.95-12.45-10.48-22.67-15.65-34-.39-.86-1.57-1.36-2.39-2-.45,1.12-1.44,2.33-1.26,3.33a108.94,108.94,0,0,0,10.27,29.93c6.54,12.8,13,25.67,19.79,38.33a113.57,113.57,0,0,1,12,33.31C207.33,631.36,208,632.76,209.68,637.55ZM404,268.67c13.17-30.6,22.64-84.47,14.81-106.49.36,21.79-4,41.2-8.58,60.6-2.27,9.68-4.8,19.32-6.48,29.1C402.85,257.23,401.71,262.9,404,268.67ZM224,1024.19c8.71,0,13.19.73,17.33-.13,12.93-2.72,26-2.36,39.09-3.06s25.39-4.52,38.38-9c-5.11-2.4-9.52-1.9-13.83-1.5C279,1012.87,253.05,1015.54,224,1024.19Zm66.59-67.91c16.8,2.46,31.16-3.17,45.93-4.84C321.18,948.09,306.41,949.78,290.55,956.28Zm15-573.76c-1.48,13.64-.59,23.55,6.19,34C313.32,404.86,311.36,395.31,305.53,382.52ZM147.75,948.16c-.32,1.13-1.23,2.49-.88,3.34,2.7,6.62,4.21,13.87,9.5,19.21,3.29-8.43-4.26-13.42-6.46-20.11C149.59,949.66,148.5,949,147.75,948.16Z" style="fill: inherit;"/><path d="M554.31,107.74c-.73,3.34-3.46,5-6,6.48-11.56,6.94-22.39,14.78-31.74,24.57-2.17,2.28-4.78,3.76-8.11,3.38,3.27-8.49,10.39-13.92,17.27-18.59C534.66,117.5,542.54,108.92,554.31,107.74Z" style="fill: inherit;"/><path d="M509,141.65c-2.66,9.78-8.75,17.38-15.55,24.54C496.1,152.81,498.32,149.29,509,141.65Z" style="fill: inherit;"/><path d="M289.88,761c.45-1.09.58-2.74,1.39-3.2q26-14.83,52.12-29.33c.34-.19,1.65,1.06,2.25,1.83.23.29-.15,1.24-.48,1.73-.69,1-1.34,2.32-2.35,2.87q-24.65,13.14-49.41,26c-.95.49-2.44-.05-3.68-.11Z" style="fill: inherit;"/><path d="M289.72,760.87c-3.23,8.39-11.37,10.71-18.23,14.55-.6.34-2-.79-3.09-1.24a5.64,5.64,0,0,1,1-1.56c5-3.71,9.87-7.53,15.05-10.94,1.35-.89,3.58-.46,5.4-.64Z" style="fill: inherit;"/><path d="M274.81,829.05c.65-1,1.16-2.64,2-2.81,7.31-1.52,14.67-2.82,22-4a16.91,16.91,0,0,1,5.63-.12q31.19,5.38,62.35,11c.48.09,1.24,1.25,1.19,1.32-.74.85-1.62,2.29-2.44,2.28-6.24-.11-13,.92-18.61-1.09-21.22-7.57-43-7.21-64.93-6.6-2.49.07-5-.16-7.5-.25Z" style="fill: inherit;"/><path d="M235.21,997.11c6.29-3.6,13.23-5.09,20.55-6.28,14.26-2.32,28.62-3.14,42.89-4.92,7.75-1,14.66,1,21.9,2.15.48.08.84.88,1.26,1.35-.47.41-.88,1-1.43,1.2-1.76.53-3.6,1.35-5.36,1.25-25.2-1.35-50,1.47-74.64,6.55C238.64,998.76,236.55,999.06,235.21,997.11Z" style="fill: inherit;"/><path d="M545.93,149.46a44.56,44.56,0,0,1-3.38,6.13c-3.72,4.92-7.7,9.64-11.55,14.46-1.16,1.44-2.1,1.38-2.79-.29-.21-.51-.49-1.28-.27-1.63,4.56-7.23,8.23-15.13,15.15-20.62a1.56,1.56,0,0,1,1.47,0C545,147.8,545.26,148.45,545.93,149.46Z" style="fill: inherit;"/><path d="M142.62,976.08c-5.34-1.09-7.8-5.83-11.23-9.2-7.53-7.42-14.64-15.24-23.31-21.45-6.7-4.8-10.93-11.7-14.34-19.08-.14-.3.44-1.06.84-1.44a1.69,1.69,0,0,1,1.33-.47,2.94,2.94,0,0,1,1.55,1c11.07,14.37,26.11,24.81,38.05,38.31,3.2,3.62,7.85,6.48,7.05,12.4Z" style="fill: inherit;"/><path d="M85.8,907.9a12.11,12.11,0,0,1-1.11,2.36c-.29.33-1.09.72-1.27.58C77.25,906.15,73,900.23,71.6,892.46c-.07-.41.64-1.17,1.14-1.4a1.62,1.62,0,0,1,1.45.52C78.19,897.12,82.12,902.71,85.8,907.9Z" style="fill: inherit;"/><path d="M316.34,508.27c7.81-7.43,17.65-11.39,27.36-15.3,11.58-4.66,23.27-8.56,36.28-8.4,7.89.1,15.83-3.08,23.73-4.87s15.72-3.64,25.75-.3c-14.63,6.08-28.28,7.69-41.77,9.39-18.69,2.35-36.9,5.95-54,14.13-5.53,2.63-11,6.36-17.72,4.88Z" style="fill: inherit;"/></g></svg>
