<?xml version="1.0" encoding="utf-8"?>
<!-- Generator: Adobe Illustrator 27.0.0, SVG Export Plug-In . SVG Version: 6.00 Build 0)  -->
<svg version="1.1" id="Camada_1" xmlns="http://www.w3.org/2000/svg" xmlns:xlink="http://www.w3.org/1999/xlink" x="0px" y="0px"
	 viewBox="0 0 1080 1080" style="enable-background:new 0 0 1080 1080;" xml:space="preserve">
<style type="text/css">
	.st0{fill:#FFFFFF;}
	.st1{fill:#316664;}
	.st2{fill:#B38D79;}
	.st3{fill:#79B3B0;}
	.st4{fill:#664A3B;}
	.st5{fill:#FFDBC7;}
</style>
<path class="st0" d="M531.5,1062L531.5,1062C307,1062,125,880,125,655.5V0h813v655.5C938,880,756,1062,531.5,1062z"/>
<g>
	<g>
		<g>
			<path class="st1" d="M415.7,510.8c-0.7,2-0.9,4.1-2,6.5l-4.3,8.2l-8.6,17c-2.5,5-5.4,9.7-6.6,14.9c3.6,0,7.9,0.7,11.5,0.4
				c0.7-0.2,1.4,0.2,2.2,0c0,0,0.4-1.1,0.9-0.9c1.1,0.4,2.2,0.5,1.8,2.2c-0.5,1.8-3.9,2.3-5,2.5c-2.9,0.7-5.9,0.4-8.6,1.1
				c-1.4,0.4-2.5,0.7-4.5,1.6c-3,1.6-5.2,7.9-6.6,11.1l-5.9,14.3c-2.5,5.4-3.6,10.4-5.6,16c-4.3,11.3-9,22.6-12.9,34.1
				c-2.2,6.1-4.3,13.3-12.2,8.4c-3.4-2.2-5-5.6-4.3-9.3c1.3-6.3,3.8-12.7,5.7-18.8c2.5-7.5,5.4-14.7,8.4-21.9
				c4.3-10,7.4-20.8,11.8-30.8c-3.2,0.5-5.9,2-9.5,2.2c-3.8,0.4-7.5,0.9-11.3,1.4c-3.6,0.4-10.4,0.9-12.6,3.4c-1.6,2-2.5,6.5-3.4,9
				l-1.3,5c-1.1,5.6-3.4,10.9-5,16.3c-2,6.1-3.9,12.2-5.6,18.3c-1.1,3.6-1.3,11.8-5.6,12.7c-4.5,0.9-10.4-5.6-10.9-9.5
				c-0.7-3.8,1.1-7.9,2-11.3c3.8-13.8,8.8-27.1,12.9-40.7c-2.5-0.7-7.9-3.2-6.3-6.8c0.7-1.6,3.6-2.2,5-2.5c3.2-0.9,4.3,0,5.7-2.9
				c1.1-2.2,2-4.5,2.9-6.6c1.8-4.8,3.8-9.5,5.6-14.2c6.3-15.4,12.2-30.8,19.9-45.5c0.7-1.1,1.4-2.3,2-3.6c0,0.4,0.7-2.2,0.4-2
				c1.8-2.5,5.4-2,8.1-0.9c3.6,1.3,7.7,4.3,6.3,8.4c-0.9,2.2-3,4.1-4.3,6.3c-1.1,2.3-1.4,5.6-2.9,8.4c-1.6,3.6-3.2,7.4-5,10.9
				c-3.2,6.1-5.6,12.6-8.4,18.8c-1.8,3.8-1.8,7.4-3.4,11.1c-1.1,2.9-2.2,5.7-3.6,8.4c4.8,0,9.1-1.6,14-2.2l8.2-0.5
				c2.5-0.2,6.6,0.4,9-0.5c3.2-1.4,6.1-12,7.7-15.8l7.4-17.2l13.1-29.4c1.3-2.9,0.7-5.2,5.2-4.5c4.5,0.5,9,4.5,10.9,8.6
				C420.3,505,417.3,507.2,415.7,510.8z M352.2,528.2c-3.6,7.7-8.6,15.1-11.7,23.1c-3,8.1-5.6,15.8-8.2,23.9
				c2.3-6.3,4.8-12.6,7.5-18.8L352.2,528.2z M352.5,527.5l0.4-0.9C352.7,526.9,352.5,527.1,352.5,527.5z M364.4,619.8
				c-1.1,2-3,3.8-3.6,5.9c-0.7,2-0.7,3.9-1.1,5.9c0.4-1.1,0.9-2,1.4-3C362.8,625.7,363.5,622.9,364.4,619.8z"/>
			<path class="st1" d="M465,585.6c-0.4,0-2.7,0.7-2.5,0.5c-1.8,0.7-1.4,0.5-2.7,2.2c-1.4,2.2-2.7,4.5-3.9,6.6
				c-0.7,0.7-7.2,10.2-8.4,9.7c0,0,1.4-1.8,1.3-2l-5.2,6.1c0.5-0.5,0.9-0.7,0.9-0.5c-1.1,3-7,6.6-9.7,8.6c-2.9,2.2-6.5,4.1-10.2,4.7
				c-3.6,0.4-7.5-0.4-10.9-2c-10.6-5.2-16.9-19.5-11.1-30.5c3-5.7,5.2-12.2,9.5-17.9c2.5-3,5.2-6.1,8.6-8.2c1.4-1.1,3-2,4.8-2.7
				c1.3-0.7,3.9-0.9,4.8-1.6c1.1-0.7,2.2-5.4,2.9-6.8c0.7-1.4,1.6-2.9,2.5-4.1c2.5-3.6,5.6-7.2,9.3-9.3c6.1-3.4,12.2,0,16.7,4.5
				c0,0,3,2,2.9,3l-0.7-0.7l0.7,1.4l0.2,0.2c-0.5-1.4,1.6,1.3,1.6,1.3c0.9,1.4,1.4,3,1.8,4.7c0.5,2.5,0.4,5.2,0,7.7
				c-0.7,6.6-2.7,13.4-4.7,19.9c5.4-0.9,10.8-2.2,16-3.2c1.3-0.4,2.5-1.3,3.4,0c0.2,0.4,0,0.2,0,0.2
				C487.9,583.8,466.9,585.2,465,585.6z M448.1,586.1c-7.9-1.1-17.6-4.5-19.5-13.4c-1.3,1.4-3.8,5.7-6.5,11.1l1.1-1.6
				c-0.4,1.8-17.6,33.4-2.7,31.2h0.2C433.2,611,442.9,596.5,448.1,586.1z M456.7,545.8c-3.6-5.6-10.2,2.5-12.9,6.1
				c-0.2,0-0.2,0.2-0.2,0.2l-0.2,0.4v-0.2c-0.2,0.4-0.4,0.5-0.2,0.5c-0.9,1.3-2,2.3-3,4.3c0.2-0.2,2.2-3.4,2.3-2.9
				c0.5,1.1-2.9,6.8-3.4,7.9c-1.1,2.9-2,5.7-2.3,8.8c-0.4,3-0.7,6.5,1.8,8.6c1.4,1.3,3.8,1.6,5.7,1.8c1.1,0.2,3.4,0.5,4.5,0.2
				c1.8-0.4,1.3,0.2,2.2-1.6c2.7-4.5,3.8-11.1,5-16.1C456.9,559.2,459.4,550.4,456.7,545.8z M443.8,551.8l-0.2,0.2
				C443.6,552,443.8,552,443.8,551.8z"/>
			<path class="st1" d="M573.3,592.7c-4.5,6.5-9,13.1-14,19.2c-3.4,4.5-9.7,12.9-16,13.1c-1.3,0.2-8.8-2.3-8.4-3.8l0.2,0.2
				c-0.4-0.2-0.4-0.5-0.5-0.9c0,0.4-2.5-2.2-2.9-3c-1.1-2-1.6-4.3-2-6.5c-0.5-3.6-0.5-7-0.5-10.4c0-3.8,0.5-7.2,1.8-10.8
				c0.2-0.7,3.4-10.8,4.5-10.6c0.2,0-0.5,1.4-0.2,1.6c0.5-1.8,1.3-3.6,2-5.6c-0.2,0.4-0.4,0.7-0.7,1.1c-0.2-0.2,4.8-12.4,5.7-14.3
				c-5.9,5.6-9,13.3-14.9,19c-3.8,3.8-6.6,10.9-9.7,16c-2.5,4.3-4.8,10.8-10.6,5.2c-1.6-1.4-2.5-3.4-2.9-5.6
				c-0.2-2.3,0.7-4.7,1.3-6.8c0.5-2,0-2.7,0.2-4.8c0.7-6.5,4.8-12.7,7.2-18.8c0.5-2,6.3-12.9,3.4-13.1c-0.4-0.2-3,3.6-3.6,4.1
				c-2.2,2.5-4.3,5.2-6.1,7.9c-5.9,9.1-9.7,18.3-14.7,27.8c-2,3.8-3.6,7.5-5.4,11.1c-0.7,1.8-2,3.4-2.5,5.2c0,0.5-0.2,2-0.4,2.3
				c-1.8,3.2-8.8-1.4-10.6-3.6c-3.8-4.5-2.3-8.6-2.5-13.6c-0.4-6.6,2.2-13.1,4.3-19.4c0.9-3,2.2-6.1,3.6-9.1c0.9-1.6,2.3-3,3-4.8
				c0.5-0.9-0.2-1.8,1.4-2.5c1.3-0.5,3,0.5,4.1,1.4c1.4,1.3,2.3,3.6,3.2,4.7c0.9,1.3,2.7,2.2,2,4.7c0,0.4-0.4,0.7-0.5,1.1
				c-1.1,1.8-2.7,3.4-3.9,5.2c-0.5,0.7-1.4,1.8-1.6,2.7c-0.4,1.3,0,1.8-0.4,3c-0.5,2.5-2,4.7-2.5,7.2c-0.4,1.6-1.1,3.6-1.1,5.2
				c0,1.8,0.7,3.2,0.4,5.2c2.7-4.3,3.9-9.7,6.5-14.3c2.9-5.7,5.7-11.8,9.1-17.4c2.9-4.5,6.3-8.8,9.1-13.4c2.3-3.8,6.3-9.1,10.9-9.7
				c6.5-0.9,11.5,7,10,12.7c-1.3,4.5-3.9,9-5.6,13.3c-2.2,6.3-3.9,12.7-5.7,19c2.2-4.5,4.8-8.8,7.7-13.3l-3.6,4.8
				c-0.2-1.3,14.7-20.6,16.5-22.4c4.8-4.7,15.1-9.7,17.8,0.2c2.3,8.6-2.2,18.6-5.2,26.4c-2.9,6.8-7,14.9-8.4,21.7
				c0.2-0.4,0.4-0.7,0.7-1.1c0,0-1.3,8.6,0.4,9c3.4,0.7,10.4-9,12.4-11.1c4.8-5.4,9.5-11.1,14.2-16.7c0.9-1.1,8.8-11.8,10-7.9
				c0.2,0.4,0,0.2,0,0.2C580.5,583.4,575.6,589.3,573.3,592.7z M515.2,566.7v0.2c1.1-2.7,4.3-11.1,3.2-13.6c0.7,2.9-3.6,14-4.3,15.4
				c-1.8,4.1-3.9,8.2-5.4,12.6c-1.3,3.6-2.5,8.4-2.5,12.6c0.4-3.9,2.2-8.2,3.6-11.8c1.8-4.8,2.9-10,5-14.5c0,0,0.2-0.4,0.4-0.5H515
				L515.2,566.7z"/>
			<path class="st1" d="M634.3,580.9l-5.6,7.4l-9.7,12.6c-2.5,3.2-5.6,6.3-8.1,9.5c-2.7,3.6-5,7.4-8.1,10.8c-3.2,3.4-7,7-11.3,9.3
				c-3,1.6-5.9,1.8-9.1,0.9c-4.7-1.3-8.8-4.1-11.8-7.7c-0.9-1.1-1.8-2-2-3.4c-0.2-1.1-0.4-2.3-0.4-3.6c-0.2-2.2,0.5-3.8,0.9-5.9
				c0.4-2.3,1.4-4.5,1.8-6.8c0.4-2.5,1.1-4.8,1.4-7.2c0.2-2.2-0.2-4.5,0.4-6.6c0.4-1.4,1.4-2.9,2-4.5c-0.5,1.1-1.4,2.2-1.6,3
				c-0.5,1.4-0.9,2.9-1.4,4.1c-0.5,1.4-0.7,2.7-1.3,4.1c-0.7,1.6-1.4,3-1.6,4.8c-0.2,1.6,0,3.2-0.2,4.8c-0.4,1.6-0.7,2.9-0.7,4.5
				c0,0.5,0.4,1.6,0.4,2c0,0.7-0.4,1.6-0.4,2.5c0,1.6,0.4,3.2,0.5,5c-2.9-5-2.3-10-1.4-15.4c0.9-5.4,1.6-10.6,2.9-15.8
				c2.3-10.6,7.2-21,14-29.4c5.6-7.4,12.9-12.9,22.6-11.1c3.6,0.7,7.5,2.3,9.9,5.4c2.5,3.4,2.3,7.7,1.1,11.7
				c-2.3,7-8.2,12.6-13.8,17.2c-2.3,2-4.8,3.9-7.5,5.6c-1.8,1.1-3.8,1.8-5.7,2.5l-3,1.1c-1.3,0.4-1.4,0.2-2,1.3
				c-0.9,1.8-0.4,3.6-0.7,5.4c-0.4,2.3-0.9,4.5-1.4,6.8c-0.9,4.3-2.3,9.9-1.3,14.3c2,9.1,17-5,19.7-7.5c1.8-1.6,3.4-3.4,5-5
				c0.9-1.1,2-2,2.7-3c0,0,0.4-0.9,0.4-1.3c2.2-3.4,5-6.6,7.7-9.9c3.2-3.8,6.1-7.7,9.1-11.8c1.6-2.3,5.4-9,8.2-4.1v0.2
				c0.2,0.2,0.2,0.2,0.2,0C635.7,578.9,635.2,579.8,634.3,580.9z M588.2,585.2c5.7-3,10.9-7.2,15.1-12l3-3.9
				c0.5-0.9,1.4-1.4,1.8-2.5c0.2-0.9-0.2-1.6,0-2.7l0.7-3.8c0.2-1.8-0.5-6.5-3.2-5.9c-1.3,0.4-2.5,2-3.2,2.9l-3.2,4.3
				c-3.8,5.6-5.7,11.7-8.4,17.4c0,0,0,0.2-0.2,0.5C589.6,581.3,589.1,583.2,588.2,585.2z"/>
			<path class="st1" d="M650.8,525.8c-0.9,2.9-2.9,5.6-3.8,8.4c-1.8,5.7-4.3,10.6-7.5,15.8c-0.9,1.3-3.4,6.8-5.6,4.7
				c-1.4-1.4,1.6-6.8,2-8.2c1.1-2.7,1.4-5.6,2.7-8.4c-4.7,0.4,2-18.8,2.5-21.2c0-0.7-0.9-0.9,0.2-2.3c0.7-1.1,2.5-1.6,3.8-1.8
				c2.3-0.2,7-0.7,7.9,2.7v0.2C653.4,518.5,651.5,523.2,650.8,525.8z"/>
			<path class="st1" d="M718.9,579.8c0.7,5.7-8.2,10.4-12,13.1c-5.2,3.8-10.4,7.4-16.1,10.4c-1.4,0.7-3.6,1.4-5,2.5
				c-2,1.6-1.6,1.4-1.3,4.3c0.5,3.2,0.9,6.5,0.9,9.9c0.2,5-0.4,10-2.2,14.9c-4.3,11.1-12.9,18.3-25.3,17.9
				c-10.9-0.2-22.6-5.9-20.3-17.8c-0.2,0.4-0.7,3.4-0.9,3.2c-1.3-0.7,0-4.7,0.4-5.6c2.2-6.6,7.9-11.8,13.3-16c3-2.3,6.1-4.7,9.1-6.6
				c2.3-1.4,7.7-3.6,8.1-6.1c0.5-2.5-1.8-7.9-2.5-10.6c-0.7-3.4-2-7-2.3-10.6c-0.2-2.3,0.5-3.8,0-5.9c-0.9-2.9-1.8-5.6-2-8.6
				c-0.2-3-0.2-6.1,0.9-9c1.4-4.3,10.9-14.2,15.8-9.7c0-0.9,2.3,2.5,2.5,3.6c0,0.7-0.7,7.4-1.8,7.2c0,0,0.4-1.6,0.5-2.9
				c-0.9,2.5-2.3,4.8-2.5,7.5c-0.4,2.3,0.2,5,0.5,7.2c0-0.4,0-0.7,0.4-0.9c-0.2,0,1.8,9.3,3.4,16.9c-1.3-4.8-2.9-10.6-3.6-14
				c1.4,7.9,3.2,15.6,5,23.3c0.2-0.2,0.4-0.5,0.2-1.4c0.2,0.5,0.4,0.9,0.4,1.1c7.9-3.9,15.2-7.7,22.6-12.4c3.2-2.2,6.6-5.7,10-7.4
				c1.8-0.7,3.2-0.4,3.8,2.2V579.8z M654.3,641.2l5-2c0.2,0.2-1.4,1.3-1.4,1.4c2.2-1.3,3.9-2.9,5.6-4.8l-0.9,0.7
				c1.4-1.4,4.8-8.6,5-9.3c1.3-4.3,1.3-8.6,1.1-12.9c-0.4,0.4-0.9,0.5-1.3,0.7l1.3-1.1l-2.2,1.3c1.1-0.4-2.3,2.3-2.9,2.7l-5.4,3.6
				c-3.6,2.5-7.5,5.2-10.2,8.8c-1.6,2.3-6.3,9.7-1.6,11.1C649,642.2,651.8,641.7,654.3,641.2z M678.2,637.4
				c-5.2,7.4-14.3,11.7-23.1,12.2c4.8-0.2,9.3-1.1,14-3C673.7,644.4,676.2,641.3,678.2,637.4z M681.1,590.6c0.5,2,0.9,3.8,1.1,5
				C681.8,594.5,681.4,592.6,681.1,590.6z M684.3,613.4c0,0.4,0,0.7,0.2,0.9C684.5,614.1,684.3,613.7,684.3,613.4z"/>
		</g>
		<g>
			<path class="st1" d="M348,776.4v0.2c-0.9,5.5-1.1,10.5-0.9,15.9l0.5,1.1c0.2,0.5,0.4,1.4,0.4,2.3c1.1,0.5,2,3.6,2.9,4.5
				c1.6,1.6,3.6,2.1,5.7,2.3c1.6,0,3.2-0.2,4.6-0.5c10.9-2.5,19.8-10.9,26.9-18.7c7-7.5,13.2-15.7,18.5-24.4
				c0.7-1.1,2.1-5.3,4.1-5.2c2.1,0.2,1.2,6.4,1.1,7.7c-2.3,18.2-14.6,34.2-28.2,45.6c-4.6,3.7-10.7,8.9-16.9,9.3
				c-5.3,0.4-11-2.7-15.3-5.3c-8.2-4.8-15.7-12.3-18.7-21.4c-2.3-6.6-0.9-13.7,0-20.5c0.2-0.4-0.4-3.7,0.4-4.6
				c-0.2,0.4-0.2,3.4-0.2,3.4c0.2-1.2,0.2-2.9,0.5-4.1c-0.4,0.4,0-2.5,0-2.7c0.2-1.6,0.5-3,0.9-4.6c0.7-3.4,1.8-6.6,2.9-10
				c2.1-6.8,5-13.4,7.1-20.3c2-6.2,4.8-12.1,8-18c0.9-1.6,8.2-16.2,9.8-15.9c0,0-1.2,2.5-1.1,2.7c1.8-3,3.6-6.2,5.5-9.3
				c-0.7,0.7-1.6,1.8-1.6,1.8c0.7-2.3,3.6-5.3,5-7.3c1.2-2.1,2.7-4.1,4.1-6.2c3.2-4.6,6.8-9.3,10.5-13.5
				c5.2-5.3,12.7-13.2,20.7-13.5c14.4-0.9,22.8,14.4,23,26.6v0.2c0,6.4-1.6,13.7-5.9,18.5c-3.9,4.5-11.8,9.6-17.8,10.3
				c-1.4,0.2-3.9,0.7-3.6-1.4c0-0.2,0.5-0.7,1.2-1.2H402c1.1-0.4,6.8-13.5,8-13.4c0,0-2.1,4.8-2.7,6.1c3-5.7,5.9-11.4,8.2-17.5
				c1.2-3.6,3.7-9.8,2.1-13.5c-2.1-4.6-8.6-1.1-11.4,0.5l-2.5,1.4l0.9-0.4c-0.9,0.5-1.6,1.1-2.1,1.6c0.9-0.7,2-1.4,3-1.8
				c2.3-1.6,7.8-5,10.7-2.9c2.1,1.8,1.6,4.5,0.7,7c0.7-3.2,0.7-6.6-2.5-7.1s-5.7,2.1-8.2,2.9c-8.2,5.3-14.6,14.1-20,22.1
				c-6.1,8.7-11.4,18.2-16,27.8c-5,10.2-8.7,20.7-12.7,31.4c-3.7,10.2-7.5,20.5-9.4,31v0.9c0,0.2,0,0.2-0.2,0.4l0.2-0.2
				C348.2,776.2,348,776.2,348,776.4z M390.1,673.4c-10.2,11-18.7,24.4-25.1,38.1c-5.3,11.4-9.8,22.8-13.5,34.8
				c2.7-7.7,6.1-15,9.4-22.1c5.9-12.1,11.8-23.9,18.7-35.3C382.4,684.1,386,678.4,390.1,673.4z M402.4,664.9c-4.5,3.6-8,8-11.4,12.5
				c2.1-2.7,4.5-5.5,7-8C399.2,668.1,400.8,666.3,402.4,664.9z M415.9,671.5c0-1.2,0.7-2.9,1.1-4.5c-0.2,1.4-0.5,2.7-0.9,3.7
				C416.1,670.9,416.1,671.1,415.9,671.5z"/>
			<path class="st1" d="M484.7,754.3c-0.4,0-2.7,0.7-2.5,0.5c-1.8,0.7-1.4,0.5-2.7,2.1c-1.4,2.1-2.7,4.5-3.9,6.6
				c-0.7,0.7-7.1,10.2-8.4,9.6c0,0,1.4-1.8,1.2-2l-5.2,6.1c0.5-0.5,0.9-0.7,0.9-0.5c-1.1,3-7,6.6-9.6,8.6c-2.9,2.1-6.4,4.1-10.2,4.6
				c-3.6,0.4-7.5-0.4-10.9-2c-10.5-5.2-16.8-19.4-11-30.3c3-5.7,5.2-12.1,9.4-17.8c2.5-3,5.2-6.1,8.6-8.2c1.4-1.1,3-2,4.8-2.7
				c1.2-0.7,3.9-0.9,4.8-1.6c1.1-0.7,2.1-5.3,2.9-6.8s1.6-2.9,2.5-4.1c2.5-3.6,5.5-7.1,9.3-9.3c6.1-3.4,12.1,0,16.6,4.5
				c0,0,3,2,2.9,3l-0.7-0.7l0.7,1.4l0.2,0.2c-0.5-1.4,1.6,1.2,1.6,1.2c0.9,1.4,1.4,3,1.8,4.6c0.5,2.5,0.4,5.2,0,7.7
				c-0.7,6.6-2.7,13.4-4.6,19.8c5.3-0.9,10.7-2.1,15.9-3.2c1.2-0.4,2.5-1.2,3.4,0c0.2,0.4,0,0.2,0,0.2
				C507.5,752.5,486.7,754,484.7,754.3z M468,754.9c-7.8-1.1-17.5-4.5-19.4-13.4c-1.2,1.4-3.7,5.7-6.4,11l1.1-1.6
				c-0.4,1.8-17.5,33.1-2.7,31h0.2C453.2,779.6,462.8,765.2,468,754.9z M476.5,714.8c-3.6-5.5-10.2,2.5-12.8,6.1
				c-0.2,0-0.2,0.2-0.2,0.2l-0.2,0.4v-0.2c-0.2,0.4-0.4,0.5-0.2,0.5c-0.9,1.2-2,2.3-3,4.3c0.2-0.2,2.1-3.4,2.3-2.9
				c0.5,1.1-2.9,6.8-3.4,7.8c-1.1,2.9-2,5.7-2.3,8.7s-0.7,6.4,1.8,8.6c1.4,1.2,3.7,1.6,5.7,1.8c1.1,0.2,3.4,0.5,4.5,0.2
				c1.8-0.4,1.2,0.2,2.1-1.6c2.7-4.5,3.7-11,5-16C476.7,728.1,479.2,719.4,476.5,714.8z M463.7,720.8l-0.2,0.2
				C463.5,721,463.7,721,463.7,720.8z"/>
			<path class="st1" d="M553.9,763.4c-4.8,8.2-14.6,15.5-23.7,18c-1.1,0.4-5,0.2-5.9,1.1c-1.1,0.9-1.2,6.8-1.4,8.2
				c-0.5,2.5-1.1,5-1.8,7.5c-2.9,10-5.2,21.6-10.9,30.3c-5,7.7-13.7,12.8-22.1,6.4c-7.3-5.5-7.3-17.6-6.8-25.8
				c1.1-20,8.9-38.1,14.3-56.9c5-17.6,13.2-34.2,21.7-50.6c4.6-9.1,9.8-18.4,15.7-26.9c4.3-6.1,11.2-17.8,19.4-18.7
				c16.2-1.8,11,22.6,7.7,30.8c-6.6,15.5-16,30.5-26.4,43.8c-6.2,8-12.8,15.9-19.6,23.7c-2.1,2.3-4.3,4.8-6.6,7.1
				c-1.8,2-2.1,2.7-3.2,5.3c-0.9,2.7-1.8,5.2-2.5,7.7c-3.4,9.8-6.4,19.6-8.9,29.8c-1.6,7-4.1,15.7-2.5,22.8l-0.7-0.5l0.2,0.2
				c6.8,12.7,18-12.1,20.1-17.5c3.2-7.5,5.7-15.1,7.3-23.2c0.4-1.8,1.2-4.5,0.9-6.2c-0.4-2.1-2.1-4.3-2.5-6.4
				c-0.9-3.9-0.9-8.6,0-12.7c1.1-4.1,4.5-7.5,7.5-2.5c1.1,2.1,1.4,4.6,1.8,7c0.2,1.8-0.5,5.5,0.2,7.1c1.1,2.5,5.3,1.1,7.5,0
				c8.6-3.4,15.3-11.1,21.2-17.8c0.9-1.1,8.4-12.7,9.8-8.2v0.2C565.3,752.7,556.7,759,553.9,763.4z M487.7,820.1
				c0-6.2,2.7-14.4,3.4-17.8c0.7-4.1,1.8-8.4,3-12.3c-0.9,2.3-1.6,4.8-2.3,7.3C489.5,804.1,486.8,812.4,487.7,820.1z M511.6,747.2
				c11.2-12.7,21.6-26.2,30.1-40.6c2.5-4.1,19.6-38.1,12.8-40.1c-2.3-0.7-4.5,2.9-5.7,4.5c-4.8,6.2-8.4,13.4-12.1,20.3
				c-7.5,14.1-13.9,28.9-20.1,43.7c0.2-0.2,0,0.5-1.1,2.9v-0.2c0,0.2-0.2,0.4-0.2,0.5L511.6,747.2z M516.6,734.9l-0.5,1.4
				C516.3,735.8,516.6,735.1,516.6,734.9z"/>
			<path class="st1" d="M614.6,763.4c-4.8,8.2-14.6,15.5-23.7,18c-1.1,0.4-5,0.2-5.9,1.1c-1.1,0.9-1.2,6.8-1.4,8.2
				c-0.5,2.5-1.1,5-1.8,7.5c-2.9,10-5.2,21.6-10.9,30.3c-5,7.7-13.7,12.8-22.1,6.4c-7.3-5.5-7.3-17.6-6.8-25.8
				c1.1-20,8.9-38.1,14.3-56.9c5-17.6,13.2-34.2,21.7-50.6c4.6-9.1,9.8-18.4,15.7-26.9c4.3-6.1,11.2-17.8,19.4-18.7
				c16.2-1.8,11,22.6,7.7,30.8c-6.6,15.5-16,30.5-26.4,43.8c-6.2,8-12.8,15.9-19.6,23.7c-2.1,2.3-4.3,4.8-6.6,7.1
				c-1.8,2-2.1,2.7-3.2,5.3c-0.9,2.7-1.8,5.2-2.5,7.7c-3.4,9.8-6.4,19.6-8.9,29.8c-1.6,7-4.1,15.7-2.5,22.8l-0.7-0.5l0.2,0.2
				c6.8,12.7,18-12.1,20.1-17.5c3.2-7.5,5.7-15.1,7.3-23.2c0.4-1.8,1.2-4.5,0.9-6.2c-0.4-2.1-2.1-4.3-2.5-6.4
				c-0.9-3.9-0.9-8.6,0-12.7c1.1-4.1,4.5-7.5,7.5-2.5c1.1,2.1,1.4,4.6,1.8,7c0.2,1.8-0.5,5.5,0.2,7.1c1.1,2.5,5.3,1.1,7.5,0
				c8.6-3.4,15.3-11.1,21.2-17.8c0.9-1.1,8.4-12.7,9.8-8.2v0.2C626,752.7,617.5,759,614.6,763.4z M548.5,820.1
				c0-6.2,2.7-14.4,3.4-17.8c0.7-4.1,1.8-8.4,3-12.3c-0.9,2.3-1.6,4.8-2.3,7.3C550.3,804.1,547.6,812.4,548.5,820.1z M572.4,747.2
				c11.2-12.7,21.6-26.2,30.1-40.6c2.5-4.1,19.6-38.1,12.8-40.1c-2.3-0.7-4.5,2.9-5.7,4.5c-4.8,6.2-8.4,13.4-12.1,20.3
				c-7.5,14.1-13.9,28.9-20.1,43.7c0.2-0.2,0,0.5-1.1,2.9v-0.2c0,0.2-0.2,0.4-0.2,0.5L572.4,747.2z M577.4,734.9l-0.5,1.4
				C577,735.8,577.4,735.1,577.4,734.9z"/>
			<path class="st1" d="M679.1,749.7l-5.5,7.3l-9.6,12.5c-2.5,3.2-5.5,6.2-8,9.4c-2.7,3.6-5,7.3-8,10.7c-3.2,3.4-7,7-11.2,9.3
				c-3,1.6-5.9,1.8-9.1,0.9c-4.6-1.2-8.7-4.1-11.8-7.7c-0.9-1.1-1.8-2-2-3.4c-0.2-1.1-0.4-2.3-0.4-3.6c-0.2-2.1,0.5-3.7,0.9-5.9
				c0.4-2.3,1.4-4.5,1.8-6.8c0.4-2.5,1.1-4.8,1.4-7.1c0.2-2.1-0.2-4.5,0.4-6.6c0.4-1.4,1.4-2.9,2-4.5c-0.5,1.1-1.4,2.1-1.6,3
				c-0.5,1.4-0.9,2.9-1.4,4.1c-0.5,1.4-0.7,2.7-1.2,4.1c-0.7,1.6-1.4,3-1.6,4.8c-0.2,1.6,0,3.2-0.2,4.8c-0.4,1.6-0.7,2.9-0.7,4.5
				c0,0.5,0.4,1.6,0.4,2c0,0.7-0.4,1.6-0.4,2.5c0,1.6,0.4,3.2,0.5,5c-2.9-5-2.3-10-1.4-15.3c0.9-5.3,1.6-10.5,2.9-15.7
				c2.3-10.5,7.1-20.9,13.9-29.2c5.5-7.3,12.8-12.8,22.5-11.1c3.6,0.7,7.5,2.3,9.8,5.3c2.5,3.4,2.3,7.7,1.1,11.6
				c-2.3,7-8.2,12.5-13.7,17.1c-2.3,2-4.8,3.9-7.5,5.5c-1.8,1.1-3.7,1.8-5.7,2.5l-3,1.1c-1.2,0.4-1.4,0.2-2,1.2
				c-0.9,1.8-0.4,3.6-0.7,5.3c-0.4,2.3-0.9,4.5-1.4,6.8c-0.9,4.3-2.3,9.8-1.2,14.3c2,9.1,16.9-5,19.6-7.5c1.8-1.6,3.4-3.4,5-5
				c0.9-1.1,2-2,2.7-3c0,0,0.4-0.9,0.4-1.2c2.1-3.4,5-6.6,7.7-9.8c3.2-3.7,6.1-7.7,9.1-11.8c1.6-2.3,5.3-8.9,8.2-4.1v0.2
				c0.2,0.2,0.2,0.2,0.2,0C680.6,747.7,680,748.6,679.1,749.7z M633.3,754c5.7-3,10.9-7.1,15-11.9l3-3.9c0.5-0.9,1.4-1.4,1.8-2.5
				c0.2-0.9-0.2-1.6,0-2.7l0.7-3.7c0.2-1.8-0.5-6.4-3.2-5.9c-1.2,0.4-2.5,2-3.2,2.9l-3.2,4.3c-3.7,5.5-5.7,11.6-8.4,17.3
				c0,0,0,0.2-0.2,0.5C634.8,750.1,634.2,752,633.3,754z"/>
			<path class="st1" d="M734.6,749.7L729,757l-9.6,12.5c-2.5,3.2-5.5,6.2-8,9.4c-2.7,3.6-5,7.3-8,10.7c-3.2,3.4-7,7-11.2,9.3
				c-3,1.6-5.9,1.8-9.1,0.9c-4.6-1.2-8.7-4.1-11.8-7.7c-0.9-1.1-1.8-2-2-3.4c-0.2-1.1-0.4-2.3-0.4-3.6c-0.2-2.1,0.5-3.7,0.9-5.9
				c0.4-2.3,1.4-4.5,1.8-6.8c0.4-2.5,1.1-4.8,1.4-7.1c0.2-2.1-0.2-4.5,0.4-6.6c0.4-1.4,1.4-2.9,2-4.5c-0.5,1.1-1.4,2.1-1.6,3
				c-0.5,1.4-0.9,2.9-1.4,4.1c-0.5,1.4-0.7,2.7-1.2,4.1c-0.7,1.6-1.4,3-1.6,4.8c-0.2,1.6,0,3.2-0.2,4.8c-0.4,1.6-0.7,2.9-0.7,4.5
				c0,0.5,0.4,1.6,0.4,2c0,0.7-0.4,1.6-0.4,2.5c0,1.6,0.4,3.2,0.5,5c-2.9-5-2.3-10-1.4-15.3c0.9-5.3,1.6-10.5,2.9-15.7
				c2.3-10.5,7.1-20.9,13.9-29.2c5.5-7.3,12.8-12.8,22.5-11.1c3.6,0.7,7.5,2.3,9.8,5.3c2.5,3.4,2.3,7.7,1.1,11.6
				c-2.3,7-8.2,12.5-13.7,17.1c-2.3,2-4.8,3.9-7.5,5.5c-1.8,1.1-3.7,1.8-5.7,2.5l-3,1.1c-1.2,0.4-1.4,0.2-2,1.2
				c-0.9,1.8-0.4,3.6-0.7,5.3c-0.4,2.3-0.9,4.5-1.4,6.8c-0.9,4.3-2.3,9.8-1.2,14.3c2,9.1,16.9-5,19.6-7.5c1.8-1.6,3.4-3.4,5-5
				c0.9-1.1,2-2,2.7-3c0,0,0.4-0.9,0.4-1.2c2.1-3.4,5-6.6,7.7-9.8c3.2-3.7,6.1-7.7,9.1-11.8c1.6-2.3,5.3-8.9,8.2-4.1v0.2
				c0.2,0.2,0.2,0.2,0.2,0C736,747.7,735.5,748.6,734.6,749.7z M688.8,754c5.7-3,10.9-7.1,15-11.9l3-3.9c0.5-0.9,1.4-1.4,1.8-2.5
				c0.2-0.9-0.2-1.6,0-2.7l0.7-3.7c0.2-1.8-0.5-6.4-3.2-5.9c-1.2,0.4-2.5,2-3.2,2.9l-3.2,4.3c-3.7,5.5-5.7,11.6-8.4,17.3
				c0,0,0,0.2-0.2,0.5C690.2,750.1,689.7,752,688.8,754z"/>
		</g>
	</g>
	<g>
		<g>
			<path class="st2" d="M514.2,946.6c-80.2,0-155.6-31.2-212.2-87.9c-56.7-56.7-87.9-132.1-87.9-212.2c0-6.6,5.3-11.9,11.9-11.9
				s11.9,5.3,11.9,11.9c0,152.4,124,276.4,276.4,276.4s276.4-124,276.4-276.4c0-6.6,5.3-11.9,11.9-11.9s11.9,5.3,11.9,11.9
				c0,80.2-31.2,155.6-87.9,212.2S594.4,946.6,514.2,946.6z"/>
		</g>
		<g>
			<path class="st2" d="M799.8,801.1c-13.2,0-25.9-3.9-36.8-11.2c-5.5-3.7-6.9-11.1-3.3-16.5c3.7-5.5,11.1-6.9,16.5-3.3
				c7,4.7,15.1,7.1,23.5,7.1c23.3,0,42.3-19,42.3-42.3c0-23-18-41.6-41-42.3c-6.6-0.2-11.7-5.7-11.5-12.2s5.7-11.8,12.2-11.5
				c17.2,0.5,33.4,7.6,45.4,20c12.1,12.4,18.7,28.8,18.7,46.1C865.9,771.5,836.3,801.1,799.8,801.1z"/>
		</g>
		<g>
			<g>
				<path class="st2" d="M726.7,346.6c-18.9-10.2-37.9-20.2-51.5-37.4c-11.2-14-11.8-25.9-0.1-39.3c7.4-8.5,16.7-15.3,25.4-22.7
					c7-5.9,14.5-11.2,21.2-17.4c17.3-16,17.9-32.3,1.7-49.4c-7.1-7.4-15.3-13.7-24.9-22.2c19.5,8.5,36.9,15.7,49.2,31.1
					c14,17.5,14.1,36.1-1.4,52.1c-8.3,8.5-18.5,15.2-27.9,22.6c-5.5,4.3-11.3,8.1-16.5,12.7c-14.1,12.6-15.2,26.1-3.5,40.8
					c4.3,5.4,9.2,10.4,14.1,15.4C717.1,337.6,722,342,726.7,346.6z"/>
			</g>
			<g>
				<path class="st2" d="M643.3,84.7c-2.6,31.9,19,51.1,36.1,72.7c6.1,7.7,12.4,15.3,17.5,23.6c12.3,19.9,11.6,36.4-3.8,54
					c-8.8,10-19.9,18-29.9,27c-0.6-0.6-1.2-1.2-1.7-1.8c4.5-5.1,9.2-10,13.5-15.2c15.8-19.5,17.5-39.6,3.6-60.4
					c-7.5-11.2-17.6-20.7-25.9-31.5c-7.7-10-16-19.9-21.2-31.1C625,108.3,630.2,95.3,643.3,84.7z"/>
			</g>
		</g>
		<g>
			<polygon class="st2" points="749.4,510.9 738.1,510.9 738.1,388.7 647.1,388.7 647.1,408.6 635.8,408.6 635.8,377.4 749.4,377.4 
							"/>
		</g>
	</g>
</g>
</svg>
