<?xml version="1.0" encoding="utf-8"?>
<!-- Generator: Adobe Illustrator 27.0.0, SVG Export Plug-In . SVG Version: 6.00 Build 0)  -->
<svg version="1.1" id="Camada_1" xmlns="http://www.w3.org/2000/svg" xmlns:xlink="http://www.w3.org/1999/xlink" x="0px" y="0px"
	 viewBox="0 0 1080 1080" style="enable-background:new 0 0 1080 1080;" xml:space="preserve">
<style type="text/css">
	.st0{fill:#FFFFFF;}
	.st1{fill:#316664;}
	.st2{fill:#B38D79;}
	.st3{fill:#79B3B0;}
	.st4{fill:#664A3B;}
	.st5{fill:#FFDBC7;}
</style>
<g>
	<g>
		<g>
			<path class="st0" d="M408.4,541.1c-0.8,2.1-0.9,4.4-2.1,6.8l-4.6,8.7l-9.1,18c-2.7,5.3-5.7,10.3-7,15.8c3.8,0,8.4,0.8,12.2,0.4
				c0.8-0.2,1.5,0.2,2.3,0c0,0,0.4-1.1,0.9-0.9c1.1,0.4,2.3,0.6,1.9,2.3c-0.6,1.9-4.2,2.5-5.3,2.7c-3,0.8-6.3,0.4-9.1,1.1
				c-1.5,0.4-2.7,0.8-4.7,1.7c-3.2,1.7-5.5,8.4-7,11.8l-6.3,15.2c-2.7,5.7-3.8,11-5.9,16.9c-4.6,12-9.5,23.9-13.7,36.1
				c-2.3,6.5-4.6,14.1-12.9,8.9c-3.6-2.3-5.3-5.9-4.6-9.9c1.3-6.6,4-13.5,6.1-19.9c2.7-8,5.7-15.6,8.9-23.2
				c4.6-10.6,7.8-22,12.5-32.7c-3.4,0.6-6.3,2.1-10.1,2.3c-4,0.4-8,0.9-12,1.5c-3.8,0.4-11,0.9-13.3,3.6c-1.7,2.1-2.7,6.8-3.6,9.5
				l-1.3,5.3c-1.1,5.9-3.6,11.6-5.3,17.3c-2.1,6.5-4.2,12.9-5.9,19.4c-1.1,3.8-1.3,12.5-5.9,13.5c-4.7,0.9-11-5.9-11.6-10.1
				c-0.8-4,1.1-8.4,2.1-12c4-14.6,9.3-28.7,13.7-43.1c-2.7-0.8-8.4-3.4-6.6-7.2c0.8-1.7,3.8-2.3,5.3-2.7c3.4-0.9,4.6,0,6.1-3
				c1.1-2.3,2.1-4.7,3-7c1.9-5.1,4-10.1,5.9-15c6.6-16.3,12.9-32.7,21.1-48.2c0.8-1.1,1.5-2.5,2.1-3.8c0,0.4,0.8-2.3,0.4-2.1
				c1.9-2.7,5.7-2.1,8.5-0.9c3.8,1.3,8.2,4.6,6.6,8.9c-0.9,2.3-3.2,4.4-4.6,6.6c-1.1,2.5-1.5,5.9-3,8.9c-1.7,3.8-3.4,7.8-5.3,11.6
				c-3.4,6.5-5.9,13.3-8.9,19.9c-1.9,4-1.9,7.8-3.6,11.8c-1.1,3-2.3,6.1-3.8,8.9c5.1,0,9.7-1.7,14.8-2.3l8.7-0.6
				c2.7-0.2,7,0.4,9.5-0.6c3.4-1.5,6.5-12.7,8.2-16.7l7.8-18.2l13.9-31.1c1.3-3,0.8-5.5,5.5-4.7c4.7,0.6,9.5,4.7,11.6,9.1
				C413.3,535.1,410.1,537.3,408.4,541.1z M341.1,559.6c-3.8,8.2-9.1,15.9-12.3,24.5c-3.2,8.5-5.9,16.7-8.7,25.3
				c2.5-6.6,5.1-13.3,8-19.9L341.1,559.6z M341.5,558.8l0.4-0.9C341.7,558.2,341.5,558.4,341.5,558.8z M354,656.6
				c-1.1,2.1-3.2,4-3.8,6.3c-0.8,2.1-0.8,4.2-1.1,6.3c0.4-1.1,1-2.1,1.5-3.2C352.3,662.9,353.1,659.8,354,656.6z"/>
			<path class="st0" d="M460.6,620.3c-0.4,0-2.8,0.8-2.7,0.6c-1.9,0.8-1.5,0.6-2.8,2.3c-1.5,2.3-2.8,4.7-4.2,7
				c-0.8,0.8-7.6,10.8-8.9,10.3c0,0,1.5-1.9,1.3-2.1l-5.5,6.5c0.6-0.6,0.9-0.8,0.9-0.6c-1.1,3.2-7.4,7-10.3,9.1
				c-3,2.3-6.8,4.4-10.8,4.9c-3.8,0.4-8-0.4-11.6-2.1c-11.2-5.5-17.8-20.7-11.8-32.3c3.2-6.1,5.5-12.9,10.1-19
				c2.7-3.2,5.5-6.5,9.1-8.7c1.5-1.1,3.2-2.1,5.1-2.8c1.3-0.8,4.2-0.9,5.1-1.7c1.1-0.8,2.3-5.7,3-7.2c0.8-1.5,1.7-3,2.7-4.4
				c2.7-3.8,5.9-7.6,9.9-9.9c6.5-3.6,12.9,0,17.7,4.7c0,0,3.2,2.1,3,3.2l-0.8-0.8l0.8,1.5l0.2,0.2c-0.6-1.5,1.7,1.3,1.7,1.3
				c0.9,1.5,1.5,3.2,1.9,4.9c0.6,2.7,0.4,5.5,0,8.2c-0.8,7-2.8,14.2-4.9,21.1c5.7-1,11.4-2.3,16.9-3.4c1.3-0.4,2.7-1.3,3.6,0
				c0.2,0.4,0,0.2,0,0.2C484.9,618.4,462.7,619.9,460.6,620.3z M442.7,620.9c-8.4-1.1-18.6-4.7-20.7-14.2c-1.3,1.5-4,6.1-6.8,11.8
				l1.1-1.7c-0.4,1.9-18.6,35.3-2.8,33h0.2C427,647.3,437.2,631.9,442.7,620.9z M451.8,578.2c-3.8-5.9-10.8,2.7-13.7,6.5
				c-0.2,0-0.2,0.2-0.2,0.2l-0.2,0.4V585c-0.2,0.4-0.4,0.6-0.2,0.6c-0.9,1.3-2.1,2.5-3.2,4.6c0.2-0.2,2.3-3.6,2.5-3
				c0.6,1.1-3,7.2-3.6,8.4c-1.1,3-2.1,6.1-2.5,9.3c-0.4,3.2-0.8,6.8,1.9,9.1c1.5,1.3,4,1.7,6.1,1.9c1.1,0.2,3.6,0.6,4.7,0.2
				c1.9-0.4,1.3,0.2,2.3-1.7c2.8-4.7,4-11.8,5.3-17.1C452,592.4,454.7,583.1,451.8,578.2z M438.2,584.6l-0.2,0.2
				C438,584.8,438.2,584.8,438.2,584.6z"/>
			<path class="st0" d="M575.3,627.9c-4.7,6.8-9.5,13.9-14.8,20.3c-3.6,4.7-10.3,13.7-16.9,13.9c-1.3,0.2-9.3-2.5-8.9-4l0.2,0.2
				c-0.4-0.2-0.4-0.6-0.6-0.9c0,0.4-2.7-2.3-3-3.2c-1.1-2.1-1.7-4.6-2.1-6.8c-0.6-3.8-0.6-7.4-0.6-11c0-4,0.6-7.6,1.9-11.4
				c0.2-0.8,3.6-11.4,4.7-11.2c0.2,0-0.6,1.5-0.2,1.7c0.6-1.9,1.3-3.8,2.1-5.9c-0.2,0.4-0.4,0.8-0.8,1.1c-0.2-0.2,5.1-13.1,6.1-15.2
				c-6.3,5.9-9.5,14.1-15.8,20.1c-4,4-7,11.6-10.3,16.9c-2.7,4.6-5.1,11.4-11.2,5.5c-1.7-1.5-2.7-3.6-3-5.9
				c-0.2-2.5,0.8-4.9,1.3-7.2c0.6-2.1,0-2.8,0.2-5.1c0.8-6.8,5.1-13.5,7.6-19.9c0.6-2.1,6.6-13.7,3.6-13.9c-0.4-0.2-3.2,3.8-3.8,4.4
				c-2.3,2.7-4.6,5.5-6.5,8.4c-6.3,9.7-10.3,19.4-15.6,29.4c-2.1,4-3.8,8-5.7,11.8c-0.8,1.9-2.1,3.6-2.7,5.5c0,0.6-0.2,2.1-0.4,2.5
				c-1.9,3.4-9.3-1.5-11.2-3.8c-4-4.7-2.5-9.1-2.7-14.4c-0.4-7,2.3-13.9,4.6-20.5c0.9-3.2,2.3-6.5,3.8-9.7c1-1.7,2.5-3.2,3.2-5.1
				c0.6-1-0.2-1.9,1.5-2.7c1.3-0.6,3.2,0.6,4.4,1.5c1.5,1.3,2.5,3.8,3.4,4.9c0.9,1.3,2.8,2.3,2.1,4.9c0,0.4-0.4,0.8-0.6,1.1
				c-1.1,1.9-2.8,3.6-4.2,5.5c-0.6,0.8-1.5,1.9-1.7,2.8c-0.4,1.3,0,1.9-0.4,3.2c-0.6,2.7-2.1,4.9-2.7,7.6c-0.4,1.7-1.1,3.8-1.1,5.5
				c0,1.9,0.8,3.4,0.4,5.5c2.8-4.6,4.2-10.3,6.8-15.2c3-6.1,6.1-12.5,9.7-18.4c3-4.7,6.6-9.3,9.7-14.2c2.5-4,6.6-9.7,11.6-10.3
				c6.8-0.9,12.2,7.4,10.6,13.5c-1.3,4.7-4.2,9.5-5.9,14.1c-2.3,6.6-4.2,13.5-6.1,20.1c2.3-4.7,5.1-9.3,8.2-14.1L520,615
				c-0.2-1.3,15.6-21.8,17.5-23.7c5.1-4.9,15.9-10.3,18.8,0.2c2.5,9.1-2.3,19.7-5.5,27.9c-3,7.2-7.4,15.8-8.9,23
				c0.2-0.4,0.4-0.8,0.8-1.1c0,0-1.3,9.1,0.4,9.5c3.6,0.8,11-9.5,13.1-11.8c5.1-5.7,10.1-11.8,15-17.7c0.9-1.1,9.3-12.5,10.6-8.4
				c0.2,0.4,0,0.2,0,0.2C582.8,618,577.7,624.3,575.3,627.9z M513.7,600.4v0.2c1.1-2.8,4.6-11.8,3.4-14.4c0.8,3-3.8,14.8-4.6,16.3
				c-1.9,4.4-4.2,8.7-5.7,13.3c-1.3,3.8-2.7,8.9-2.7,13.3c0.4-4.2,2.3-8.7,3.8-12.5c1.9-5.1,3-10.6,5.3-15.4c0,0,0.2-0.4,0.4-0.6
				h-0.2L513.7,600.4z"/>
			<path class="st0" d="M639.8,615.4l-5.9,7.8l-10.3,13.3c-2.7,3.4-5.9,6.6-8.5,10.1c-2.8,3.8-5.3,7.8-8.5,11.4
				c-3.4,3.6-7.4,7.4-12,9.9c-3.2,1.7-6.3,1.9-9.7,0.9c-4.9-1.3-9.3-4.4-12.5-8.2c-0.9-1.1-1.9-2.1-2.1-3.6
				c-0.2-1.1-0.4-2.5-0.4-3.8c-0.2-2.3,0.6-4,0.9-6.3c0.4-2.5,1.5-4.7,1.9-7.2c0.4-2.7,1.1-5.1,1.5-7.6c0.2-2.3-0.2-4.7,0.4-7
				c0.4-1.5,1.5-3,2.1-4.7c-0.6,1.1-1.5,2.3-1.7,3.2c-0.6,1.5-1,3-1.5,4.4c-0.6,1.5-0.8,2.8-1.3,4.4c-0.8,1.7-1.5,3.2-1.7,5.1
				c-0.2,1.7,0,3.4-0.2,5.1c-0.4,1.7-0.8,3-0.8,4.7c0,0.6,0.4,1.7,0.4,2.1c0,0.8-0.4,1.7-0.4,2.7c0,1.7,0.4,3.4,0.6,5.3
				c-3-5.3-2.5-10.6-1.5-16.3s1.7-11.2,3-16.7c2.5-11.2,7.6-22.2,14.8-31.1c5.9-7.8,13.7-13.7,23.9-11.8c3.8,0.8,8,2.5,10.4,5.7
				c2.7,3.6,2.5,8.2,1.1,12.3c-2.5,7.4-8.7,13.3-14.6,18.2c-2.5,2.1-5.1,4.2-8,5.9c-1.9,1.1-4,1.9-6.1,2.7l-3.2,1.1
				c-1.3,0.4-1.5,0.2-2.1,1.3c-0.9,1.9-0.4,3.8-0.8,5.7c-0.4,2.5-1,4.7-1.5,7.2c-0.9,4.6-2.5,10.4-1.3,15.2c2.1,9.7,18-5.3,20.9-8
				c1.9-1.7,3.6-3.6,5.3-5.3c1-1.1,2.1-2.1,2.8-3.2c0,0,0.4-1,0.4-1.3c2.3-3.6,5.3-7,8.2-10.4c3.4-4,6.5-8.2,9.7-12.5
				c1.7-2.5,5.7-9.5,8.7-4.4v0.2c0.2,0.2,0.2,0.2,0.2,0C641.3,613.3,640.8,614.2,639.8,615.4z M591,619.9c6.1-3.2,11.6-7.6,16-12.7
				l3.2-4.2c0.6-0.9,1.5-1.5,1.9-2.7c0.2-1-0.2-1.7,0-2.8l0.8-4c0.2-1.9-0.6-6.8-3.4-6.3c-1.3,0.4-2.7,2.1-3.4,3l-3.4,4.6
				c-4,5.9-6.1,12.3-8.9,18.4c0,0,0,0.2-0.2,0.6C592.5,615.8,592,617.9,591,619.9z"/>
			<path class="st0" d="M657.3,557.1c-0.9,3-3,5.9-4,8.9c-1.9,6.1-4.6,11.2-8,16.7c-0.9,1.3-3.6,7.2-5.9,4.9
				c-1.5-1.5,1.7-7.2,2.1-8.7c1.1-2.8,1.5-5.9,2.8-8.9c-4.9,0.4,2.1-19.9,2.7-22.4c0-0.8-0.9-0.9,0.2-2.5c0.8-1.1,2.7-1.7,4-1.9
				c2.5-0.2,7.4-0.8,8.4,2.8v0.2C660.1,549.3,658,554.2,657.3,557.1z"/>
			<path class="st0" d="M729.4,614.2c0.8,6.1-8.7,11-12.7,13.9c-5.5,4-11,7.8-17.1,11c-1.5,0.8-3.8,1.5-5.3,2.7
				c-2.1,1.7-1.7,1.5-1.3,4.6c0.6,3.4,0.9,6.8,0.9,10.4c0.2,5.3-0.4,10.6-2.3,15.8c-4.6,11.8-13.7,19.4-26.8,19
				c-11.6-0.2-23.9-6.3-21.5-18.8c-0.2,0.4-0.8,3.6-1,3.4c-1.3-0.8,0-4.9,0.4-5.9c2.3-7,8.4-12.5,14.1-16.9c3.2-2.5,6.5-4.9,9.7-7
				c2.5-1.5,8.2-3.8,8.5-6.5c0.6-2.7-1.9-8.4-2.7-11.2c-0.8-3.6-2.1-7.4-2.5-11.2c-0.2-2.5,0.6-4,0-6.3c-0.9-3-1.9-5.9-2.1-9.1
				c-0.2-3.2-0.2-6.5,0.9-9.5c1.5-4.6,11.6-15,16.7-10.3c0-0.9,2.5,2.7,2.7,3.8c0,0.8-0.8,7.8-1.9,7.6c0,0,0.4-1.7,0.6-3
				c-0.9,2.7-2.5,5.1-2.7,8c-0.4,2.5,0.2,5.3,0.6,7.6c0-0.4,0-0.8,0.4-0.9c-0.2,0,1.9,9.9,3.6,17.8c-1.3-5.1-3-11.2-3.8-14.8
				c1.5,8.4,3.4,16.5,5.3,24.7c0.2-0.2,0.4-0.6,0.2-1.5c0.2,0.6,0.4,1,0.4,1.1c8.4-4.2,16.1-8.2,23.9-13.1c3.4-2.3,7-6.1,10.6-7.8
				c1.9-0.8,3.4-0.4,4,2.3V614.2z M661.1,679.2l5.3-2.1c0.2,0.2-1.5,1.3-1.5,1.5c2.3-1.3,4.2-3,5.9-5.1l-0.9,0.8
				c1.5-1.5,5.1-9.1,5.3-9.9c1.3-4.6,1.3-9.1,1.1-13.7c-0.4,0.4-0.9,0.6-1.3,0.8l1.3-1.1l-2.3,1.3c1.1-0.4-2.5,2.5-3,2.8l-5.7,3.8
				c-3.8,2.7-8,5.5-10.8,9.3c-1.7,2.5-6.6,10.3-1.7,11.8C655.4,680.3,658.4,679.8,661.1,679.2z M686.3,675.2
				c-5.5,7.8-15.2,12.3-24.5,12.9c5.1-0.2,9.9-1.1,14.8-3.2C681.6,682.6,684.2,679.4,686.3,675.2z M689.4,625.6c0.6,2.1,1,4,1.1,5.3
				C690.1,629.8,689.7,627.7,689.4,625.6z M692.8,649.8c0,0.4,0,0.8,0.2,1C693,650.5,692.8,650.1,692.8,649.8z"/>
		</g>
		<g>
			<path class="st0" d="M336.7,822.4v0.2c-0.9,5.8-1.1,11.1-0.9,16.8l0.6,1.1c0.2,0.6,0.4,1.5,0.4,2.5c1.1,0.6,2.1,3.8,3,4.7
				c1.7,1.7,3.8,2.3,6,2.5c1.7,0,3.4-0.2,4.9-0.6c11.5-2.6,20.9-11.5,28.5-19.8c7.4-7.9,14-16.6,19.6-25.9c0.8-1.1,2.3-5.7,4.3-5.5
				c2.3,0.2,1.3,6.8,1.1,8.1c-2.5,19.2-15.5,36.2-29.8,48.3c-4.9,4-11.3,9.4-17.9,9.8c-5.7,0.4-11.7-2.8-16.2-5.7
				c-8.7-5.1-16.6-13-19.8-22.6c-2.5-7-0.9-14.5,0-21.7c0.2-0.4-0.4-4,0.4-4.9c-0.2,0.4-0.2,3.6-0.2,3.6c0.2-1.3,0.2-3,0.6-4.3
				c-0.4,0.4,0-2.6,0-2.8c0.2-1.7,0.6-3.2,0.9-4.9c0.8-3.6,1.9-7,3-10.6c2.3-7.2,5.3-14.2,7.5-21.5c2.1-6.6,5.1-12.8,8.5-19.1
				c0.9-1.7,8.7-17.2,10.4-16.8c0,0-1.3,2.6-1.1,2.8c1.9-3.2,3.8-6.6,5.8-9.8c-0.8,0.8-1.7,1.9-1.7,1.9c0.8-2.5,3.8-5.7,5.3-7.7
				c1.3-2.3,2.8-4.3,4.3-6.6c3.4-4.9,7.2-9.8,11.1-14.3c5.5-5.7,13.4-14,21.9-14.3c15.3-0.9,24.2,15.3,24.3,28.1v0.2
				c0,6.8-1.7,14.5-6.2,19.6c-4.2,4.7-12.5,10.2-18.9,10.9c-1.5,0.2-4.2,0.8-3.8-1.5c0-0.2,0.6-0.8,1.3-1.3h-0.2
				c1.1-0.4,7.2-14.3,8.5-14.2c0,0-2.3,5.1-2.8,6.4c3.2-6,6.2-12.1,8.7-18.5c1.3-3.8,4-10.4,2.3-14.3c-2.3-4.9-9.1-1.1-12.1,0.6
				l-2.6,1.5l0.9-0.4c-0.9,0.6-1.7,1.1-2.3,1.7c0.9-0.8,2.1-1.5,3.2-1.9c2.5-1.7,8.3-5.3,11.3-3c2.3,1.9,1.7,4.7,0.8,7.4
				c0.8-3.4,0.8-7-2.6-7.5c-3.4-0.6-6,2.3-8.7,3c-8.7,5.7-15.5,14.9-21.1,23.4c-6.4,9.2-12.1,19.2-17,29.4
				c-5.3,10.8-9.2,21.9-13.4,33.2c-4,10.8-7.9,21.7-10,32.8v0.9c0,0.2,0,0.2-0.2,0.4l0.2-0.2C336.9,822.2,336.7,822.2,336.7,822.4z
				 M381.3,713.3c-10.8,11.7-19.8,25.9-26.6,40.4c-5.7,12.1-10.4,24.2-14.3,36.8c2.8-8.1,6.4-15.9,10-23.4
				c6.2-12.8,12.5-25.3,19.8-37.4C373.1,724.7,376.9,718.6,381.3,713.3z M394.3,704.3c-4.7,3.8-8.5,8.5-12.1,13.2
				c2.3-2.8,4.7-5.8,7.4-8.5C390.9,707.7,392.6,705.8,394.3,704.3z M408.6,711.3c0-1.3,0.8-3,1.1-4.7c-0.2,1.5-0.6,2.8-0.9,4
				C408.8,710.7,408.8,710.9,408.6,711.3z"/>
			<path class="st0" d="M481.5,799c-0.4,0-2.8,0.8-2.6,0.6c-1.9,0.8-1.5,0.6-2.8,2.3c-1.5,2.3-2.8,4.7-4.2,7
				c-0.8,0.8-7.5,10.8-8.9,10.2c0,0,1.5-1.9,1.3-2.1l-5.5,6.4c0.6-0.6,0.9-0.8,0.9-0.6c-1.1,3.2-7.4,7-10.2,9.1
				c-3,2.3-6.8,4.3-10.8,4.9c-3.8,0.4-7.9-0.4-11.5-2.1c-11.1-5.5-17.7-20.6-11.7-32.1c3.2-6,5.5-12.8,10-18.9
				c2.6-3.2,5.5-6.4,9.1-8.7c1.5-1.1,3.2-2.1,5.1-2.8c1.3-0.8,4.2-0.9,5.1-1.7c1.1-0.8,2.3-5.7,3-7.2s1.7-3,2.6-4.3
				c2.6-3.8,5.9-7.5,9.8-9.8c6.4-3.6,12.8,0,17.5,4.7c0,0,3.2,2.1,3,3.2l-0.8-0.8l0.8,1.5l0.2,0.2c-0.6-1.5,1.7,1.3,1.7,1.3
				c0.9,1.5,1.5,3.2,1.9,4.9c0.6,2.6,0.4,5.5,0,8.1c-0.8,7-2.8,14.2-4.9,20.9c5.7-0.9,11.3-2.3,16.8-3.4c1.3-0.4,2.6-1.3,3.6,0
				c0.2,0.4,0,0.2,0,0.2C505.6,797.1,483.5,798.6,481.5,799z M463.7,799.6c-8.3-1.1-18.5-4.7-20.6-14.2c-1.3,1.5-4,6-6.8,11.7
				l1.1-1.7c-0.4,1.9-18.5,35.1-2.8,32.8h0.2C448.1,825.8,458.2,810.5,463.7,799.6z M472.8,757.1c-3.8-5.9-10.8,2.6-13.6,6.4
				c-0.2,0-0.2,0.2-0.2,0.2l-0.2,0.4v-0.2c-0.2,0.4-0.4,0.6-0.2,0.6c-0.9,1.3-2.1,2.5-3.2,4.5c0.2-0.2,2.3-3.6,2.5-3
				c0.6,1.1-3,7.2-3.6,8.3c-1.1,3-2.1,6-2.5,9.2s-0.8,6.8,1.9,9.1c1.5,1.3,4,1.7,6,1.9c1.1,0.2,3.6,0.6,4.7,0.2
				c1.9-0.4,1.3,0.2,2.3-1.7c2.8-4.7,4-11.7,5.3-17C473,771.3,475.6,762,472.8,757.1z M459.2,763.5l-0.2,0.2
				C459,763.7,459.2,763.7,459.2,763.5z"/>
			<path class="st0" d="M554.7,808.6c-5.1,8.7-15.5,16.4-25.1,19.1c-1.1,0.4-5.3,0.2-6.2,1.1c-1.1,0.9-1.3,7.2-1.5,8.7
				c-0.6,2.6-1.1,5.3-1.9,7.9c-3,10.6-5.5,22.8-11.5,32.1c-5.3,8.1-14.5,13.6-23.4,6.8c-7.7-5.9-7.7-18.7-7.2-27.4
				c1.1-21.1,9.4-40.4,15.1-60.2c5.3-18.7,14-36.2,23-53.6c4.9-9.6,10.4-19.4,16.6-28.5c4.5-6.4,11.9-18.9,20.6-19.8
				c17.2-1.9,11.7,24,8.1,32.6c-7,16.4-17,32.3-27.9,46.4c-6.6,8.5-13.6,16.8-20.8,25.1c-2.3,2.5-4.5,5.1-7,7.5
				c-1.9,2.1-2.3,2.8-3.4,5.7c-0.9,2.8-1.9,5.5-2.6,8.1c-3.6,10.4-6.8,20.8-9.4,31.5c-1.7,7.4-4.3,16.6-2.6,24.2l-0.8-0.6l0.2,0.2
				c7.2,13.4,19.1-12.8,21.3-18.5c3.4-7.9,6-16,7.7-24.5c0.4-1.9,1.3-4.7,0.9-6.6c-0.4-2.3-2.3-4.5-2.6-6.8c-0.9-4.2-0.9-9.1,0-13.4
				c1.1-4.3,4.7-7.9,7.9-2.6c1.1,2.3,1.5,4.9,1.9,7.4c0.2,1.9-0.6,5.8,0.2,7.5c1.1,2.6,5.7,1.1,7.9,0c9.1-3.6,16.2-11.7,22.5-18.9
				c0.9-1.1,8.9-13.4,10.4-8.7v0.2C566.8,797.3,557.7,803.9,554.7,808.6z M484.7,868.7c0-6.6,2.8-15.3,3.6-18.9
				c0.8-4.3,1.9-8.9,3.2-13c-0.9,2.5-1.7,5.1-2.5,7.7C486.6,851.7,483.7,860.5,484.7,868.7z M510,791.5c11.9-13.4,22.8-27.7,31.9-43
				c2.6-4.3,20.8-40.4,13.6-42.5c-2.5-0.8-4.7,3-6,4.7c-5.1,6.6-8.9,14.2-12.8,21.5c-7.9,14.9-14.7,30.6-21.3,46.2
				c0.2-0.2,0,0.6-1.1,3v-0.2c0,0.2-0.2,0.4-0.2,0.6L510,791.5z M515.2,778.5l-0.6,1.5C514.9,779.4,515.2,778.6,515.2,778.5z"/>
			<path class="st0" d="M619,808.6c-5.1,8.7-15.5,16.4-25.1,19.1c-1.1,0.4-5.3,0.2-6.2,1.1c-1.1,0.9-1.3,7.2-1.5,8.7
				c-0.6,2.6-1.1,5.3-1.9,7.9c-3,10.6-5.5,22.8-11.5,32.1c-5.3,8.1-14.5,13.6-23.4,6.8c-7.7-5.9-7.7-18.7-7.2-27.4
				c1.1-21.1,9.4-40.4,15.1-60.2c5.3-18.7,14-36.2,23-53.6c4.9-9.6,10.4-19.4,16.6-28.5c4.5-6.4,11.9-18.9,20.6-19.8
				c17.2-1.9,11.7,24,8.1,32.6c-7,16.4-17,32.3-27.9,46.4c-6.6,8.5-13.6,16.8-20.8,25.1c-2.3,2.5-4.5,5.1-7,7.5
				c-1.9,2.1-2.3,2.8-3.4,5.7c-0.9,2.8-1.9,5.5-2.6,8.1c-3.6,10.4-6.8,20.8-9.4,31.5c-1.7,7.4-4.3,16.6-2.6,24.2l-0.8-0.6l0.2,0.2
				c7.2,13.4,19.1-12.8,21.3-18.5c3.4-7.9,6-16,7.7-24.5c0.4-1.9,1.3-4.7,0.9-6.6c-0.4-2.3-2.3-4.5-2.6-6.8c-0.9-4.2-0.9-9.1,0-13.4
				c1.1-4.3,4.7-7.9,7.9-2.6c1.1,2.3,1.5,4.9,1.9,7.4c0.2,1.9-0.6,5.8,0.2,7.5c1.1,2.6,5.7,1.1,7.9,0c9.1-3.6,16.2-11.7,22.5-18.9
				c0.9-1.1,8.9-13.4,10.4-8.7v0.2C631.1,797.3,622,803.9,619,808.6z M549,868.7c0-6.6,2.8-15.3,3.6-18.9c0.8-4.3,1.9-8.9,3.2-13
				c-0.9,2.5-1.7,5.1-2.5,7.7C550.9,851.7,548.1,860.5,549,868.7z M574.3,791.5c11.9-13.4,22.8-27.7,31.9-43
				c2.6-4.3,20.8-40.4,13.6-42.5c-2.5-0.8-4.7,3-6,4.7c-5.1,6.6-8.9,14.2-12.8,21.5c-7.9,14.9-14.7,30.6-21.3,46.2
				c0.2-0.2,0,0.6-1.1,3v-0.2c0,0.2-0.2,0.4-0.2,0.6L574.3,791.5z M579.6,778.5L579,780C579.2,779.4,579.6,778.6,579.6,778.5z"/>
			<path class="st0" d="M687.3,794.1l-5.8,7.7l-10.2,13.2c-2.6,3.4-5.8,6.6-8.5,10c-2.8,3.8-5.3,7.7-8.5,11.3
				c-3.4,3.6-7.4,7.4-11.9,9.8c-3.2,1.7-6.2,1.9-9.6,0.9c-4.9-1.3-9.2-4.3-12.5-8.1c-0.9-1.1-1.9-2.1-2.1-3.6
				c-0.2-1.1-0.4-2.5-0.4-3.8c-0.2-2.3,0.6-4,0.9-6.2c0.4-2.5,1.5-4.7,1.9-7.2c0.4-2.6,1.1-5.1,1.5-7.5c0.2-2.3-0.2-4.7,0.4-7
				c0.4-1.5,1.5-3,2.1-4.7c-0.6,1.1-1.5,2.3-1.7,3.2c-0.6,1.5-0.9,3-1.5,4.3c-0.6,1.5-0.8,2.8-1.3,4.3c-0.8,1.7-1.5,3.2-1.7,5.1
				c-0.2,1.7,0,3.4-0.2,5.1c-0.4,1.7-0.8,3-0.8,4.7c0,0.6,0.4,1.7,0.4,2.1c0,0.8-0.4,1.7-0.4,2.6c0,1.7,0.4,3.4,0.6,5.3
				c-3-5.3-2.5-10.6-1.5-16.2s1.7-11.1,3-16.6c2.5-11.1,7.5-22.1,14.7-30.9c5.8-7.7,13.6-13.6,23.8-11.7c3.8,0.8,7.9,2.5,10.4,5.7
				c2.6,3.6,2.5,8.1,1.1,12.3c-2.5,7.4-8.7,13.2-14.5,18.1c-2.5,2.1-5.1,4.2-7.9,5.9c-1.9,1.1-4,1.9-6,2.6l-3.2,1.1
				c-1.3,0.4-1.5,0.2-2.1,1.3c-0.9,1.9-0.4,3.8-0.8,5.7c-0.4,2.5-0.9,4.7-1.5,7.2c-0.9,4.5-2.5,10.4-1.3,15.1
				c2.1,9.6,17.9-5.3,20.8-7.9c1.9-1.7,3.6-3.6,5.3-5.3c0.9-1.1,2.1-2.1,2.8-3.2c0,0,0.4-0.9,0.4-1.3c2.3-3.6,5.3-7,8.1-10.4
				c3.4-4,6.4-8.1,9.6-12.5c1.7-2.5,5.7-9.4,8.7-4.3v0.2c0.2,0.2,0.2,0.2,0.2,0C688.8,792,688.3,793,687.3,794.1z M638.8,798.6
				c6-3.2,11.5-7.5,15.9-12.6l3.2-4.2c0.6-0.9,1.5-1.5,1.9-2.6c0.2-0.9-0.2-1.7,0-2.8l0.8-4c0.2-1.9-0.6-6.8-3.4-6.2
				c-1.3,0.4-2.6,2.1-3.4,3l-3.4,4.5c-4,5.9-6,12.3-8.9,18.3c0,0,0,0.2-0.2,0.6C640.3,794.5,639.8,796.6,638.8,798.6z"/>
			<path class="st0" d="M746,794.1l-5.8,7.7L730,815.1c-2.6,3.4-5.8,6.6-8.5,10c-2.8,3.8-5.3,7.7-8.5,11.3
				c-3.4,3.6-7.4,7.4-11.9,9.8c-3.2,1.7-6.2,1.9-9.6,0.9c-4.9-1.3-9.2-4.3-12.5-8.1c-0.9-1.1-1.9-2.1-2.1-3.6
				c-0.2-1.1-0.4-2.5-0.4-3.8c-0.2-2.3,0.6-4,0.9-6.2c0.4-2.5,1.5-4.7,1.9-7.2c0.4-2.6,1.1-5.1,1.5-7.5c0.2-2.3-0.2-4.7,0.4-7
				c0.4-1.5,1.5-3,2.1-4.7c-0.6,1.1-1.5,2.3-1.7,3.2c-0.6,1.5-0.9,3-1.5,4.3c-0.6,1.5-0.8,2.8-1.3,4.3c-0.8,1.7-1.5,3.2-1.7,5.1
				c-0.2,1.7,0,3.4-0.2,5.1c-0.4,1.7-0.8,3-0.8,4.7c0,0.6,0.4,1.7,0.4,2.1c0,0.8-0.4,1.7-0.4,2.6c0,1.7,0.4,3.4,0.6,5.3
				c-3-5.3-2.5-10.6-1.5-16.2s1.7-11.1,3-16.6c2.5-11.1,7.5-22.1,14.7-30.9c5.8-7.7,13.6-13.6,23.8-11.7c3.8,0.8,7.9,2.5,10.4,5.7
				c2.6,3.6,2.5,8.1,1.1,12.3c-2.5,7.4-8.7,13.2-14.5,18.1c-2.5,2.1-5.1,4.2-7.9,5.9c-1.9,1.1-4,1.9-6,2.6l-3.2,1.1
				c-1.3,0.4-1.5,0.2-2.1,1.3c-0.9,1.9-0.4,3.8-0.8,5.7c-0.4,2.5-0.9,4.7-1.5,7.2c-0.9,4.5-2.5,10.4-1.3,15.1
				c2.1,9.6,17.9-5.3,20.8-7.9c1.9-1.7,3.6-3.6,5.3-5.3c0.9-1.1,2.1-2.1,2.8-3.2c0,0,0.4-0.9,0.4-1.3c2.3-3.6,5.3-7,8.1-10.4
				c3.4-4,6.4-8.1,9.6-12.5c1.7-2.5,5.7-9.4,8.7-4.3v0.2c0.2,0.2,0.2,0.2,0.2,0C747.5,792,747,793,746,794.1z M697.5,798.6
				c6-3.2,11.5-7.5,15.9-12.6l3.2-4.2c0.6-0.9,1.5-1.5,1.9-2.6c0.2-0.9-0.2-1.7,0-2.8l0.8-4c0.2-1.9-0.6-6.8-3.4-6.2
				c-1.3,0.4-2.6,2.1-3.4,3l-3.4,4.5c-4,5.9-6,12.3-8.9,18.3c0,0,0,0.2-0.2,0.6C699,794.5,698.5,796.6,697.5,798.6z"/>
		</g>
	</g>
	<g>
		<path class="st0" d="M512.7,1002.6c-84.9,0-164.7-33.1-224.7-93.1c-60-60-93.1-139.8-93.1-224.7c0-7,5.6-12.6,12.6-12.6
			s12.6,5.6,12.6,12.6c0,161.4,131.3,292.6,292.6,292.6s292.6-131.3,292.6-292.6c0-7,5.6-12.6,12.6-12.6s12.6,5.6,12.6,12.6
			c0,84.9-33.1,164.7-93.1,224.7C677.4,969.5,597.6,1002.6,512.7,1002.6z"/>
	</g>
	<g>
		<path class="st0" d="M815.1,848.6c-13.9,0-27.4-4.1-38.9-11.8c-5.8-3.9-7.3-11.7-3.5-17.5c3.9-5.8,11.7-7.3,17.5-3.5
			c7.4,4.9,16,7.5,24.9,7.5c24.7,0,44.8-20.1,44.8-44.8c0-24.4-19.1-44.1-43.4-44.8c-7-0.2-12.4-6-12.2-13c0.2-7,6-12.4,13-12.2
			c18.3,0.5,35.3,8.1,48.1,21.2c12.8,13.1,19.8,30.5,19.8,48.8C885.1,817.2,853.7,848.6,815.1,848.6z"/>
	</g>
	<g>
		<path class="st0" d="M737.7,367.3c-20-10.8-40.1-21.4-54.6-39.5c-11.8-14.8-12.5-27.4-0.1-41.6c7.9-9,17.7-16.2,26.9-24
			c7.4-6.3,15.4-11.9,22.5-18.5c18.3-16.9,19-34.1,1.8-52.3c-7.5-7.9-16.2-14.5-26.4-23.5c20.7,9,39,16.6,52.1,32.9
			c14.9,18.5,15,38.2-1.5,55.1c-8.8,9-19.6,16.1-29.5,23.9c-5.8,4.6-12,8.6-17.5,13.5c-14.9,13.4-16.1,27.6-3.7,43.3
			c4.6,5.7,9.8,11,14.9,16.3C727.5,357.8,732.7,362.5,737.7,367.3z"/>
		<path class="st0" d="M649.4,90c-2.7,33.7,20.2,54.1,38.2,77c6.4,8.1,13.1,16.2,18.6,25c13.1,21.1,12.3,38.6-4,57.1
			c-9.3,10.6-21.1,19.1-31.7,28.5c-0.6-0.6-1.2-1.3-1.8-1.9c4.8-5.4,9.7-10.6,14.2-16.1c16.8-20.6,18.6-41.9,3.8-63.9
			c-8-11.9-18.6-21.9-27.4-33.3c-8.1-10.5-16.9-21-22.5-32.9C630,115,635.5,101.3,649.4,90z"/>
	</g>
	<g>
		<polygon class="st0" points="761.7,541.3 749.7,541.3 749.7,411.9 653.4,411.9 653.4,433 641.4,433 641.4,399.9 761.7,399.9 		"/>
	</g>
</g>
</svg>
